<?xml version="1.0" encoding="UTF-8" standalone="no"?>
<!-- Created with Inkscape (http://www.inkscape.org/) -->

<svg
   xmlns:dc="http://purl.org/dc/elements/1.1/"
   xmlns:cc="http://creativecommons.org/ns#"
   xmlns:rdf="http://www.w3.org/1999/02/22-rdf-syntax-ns#"
   xmlns:svg="http://www.w3.org/2000/svg"
   xmlns="http://www.w3.org/2000/svg"
   xmlns:sodipodi="http://sodipodi.sourceforge.net/DTD/sodipodi-0.dtd"
   xmlns:inkscape="http://www.inkscape.org/namespaces/inkscape"
   version="1.1"
   id="svg2"
   xml:space="preserve"
   width="262.45352"
   height="259.34109"
   viewBox="0 0 262.45352 259.34109"
   sodipodi:docname="duke.svg"
   inkscape:version="0.92.5 (2060ec1f9f, 2020-04-08)"><metadata
     id="metadata8"><rdf:RDF><cc:Work
         rdf:about=""><dc:format>image/svg+xml</dc:format><dc:type
           rdf:resource="http://purl.org/dc/dcmitype/StillImage" /><dc:title></dc:title></cc:Work></rdf:RDF></metadata><defs
     id="defs6"><clipPath
       clipPathUnits="userSpaceOnUse"
       id="clipPath82"><path
         d="m 1293.16,1554.63 h 448.141 v 319.813 H 1293.16 Z"
         id="path80"
         inkscape:connector-curvature="0" /></clipPath></defs><sodipodi:namedview
     pagecolor="#ffffff"
     bordercolor="#666666"
     borderopacity="1"
     objecttolerance="10"
     gridtolerance="10"
     guidetolerance="10"
     inkscape:pageopacity="0"
     inkscape:pageshadow="2"
     inkscape:window-width="1848"
     inkscape:window-height="1016"
     id="namedview4"
     showgrid="false"
     fit-margin-top="0"
     fit-margin-left="0"
     fit-margin-right="0"
     fit-margin-bottom="0"
     inkscape:zoom="4"
     inkscape:cx="141.07019"
     inkscape:cy="76.373207"
     inkscape:window-x="72"
     inkscape:window-y="27"
     inkscape:window-maximized="1"
     inkscape:current-layer="g10"
     showguides="false"
     inkscape:snap-global="false" /><g
     id="g10"
     inkscape:groupmode="layer"
     inkscape:label="ink_ext_XXXXXX"
     transform="matrix(1.3333333,0,0,-1.3333333,-79.930619,358.74268)"><path
       style="opacity:1;vector-effect:none;fill:#999999;fill-opacity:1;stroke:none;stroke-width:0.1;stroke-linecap:butt;stroke-linejoin:miter;stroke-miterlimit:4;stroke-dasharray:none;stroke-dashoffset:0;stroke-opacity:1"
       d="M 190.99023 96.537109 C 188.70403 96.575659 186.42417 96.740391 184.16992 97.025391 C 181.33057 97.385272 178.66191 97.928054 176.18555 98.621094 C 176.73113 103.37467 177.22657 108.4804 177.66211 114.1543 C 177.67678 114.32763 177.66677 114.50316 177.63477 114.67383 C 175.51477 126.05249 165.78766 139.61523 131.48633 139.61523 C 103.005 139.61523 84.229427 127.34992 83.496094 120.66992 C 82.77081 113.36879 82.9615 106.68227 84.130859 100.09766 C 80.232283 98.601427 75.72739 97.732968 71.664062 97.822266 C 64.969736 97.969384 60.392966 98.659642 55.794922 100.11914 C 54.903108 100.40222 54.010329 100.70707 53.119141 101.04883 C 43.159808 104.87149 25.960605 115.53618 20.763672 144.21484 C 22.331467 144.64486 23.637151 145.21498 24.748047 145.88867 C 25.858943 146.56238 26.774701 147.33953 27.5625 148.18555 C 28.3503 149.03157 29.008918 149.9456 29.607422 150.89258 C 30.205926 151.83955 30.7441 152.82025 31.287109 153.79688 C 39.827242 144.74211 48.088315 147.10341 50.675781 148.19141 C 51.822581 155.31274 59.000532 194.33932 80.644531 210.47266 C 74.704531 220.83799 77.89074 230.95697 79.941406 235.50391 L 84.359375 235.41602 L 86.681641 235.36914 L 90.730469 235.28711 C 89.789722 229.33914 93.835241 223.59176 97.429688 221.86328 C 102.78522 223.76412 109.38558 226.10935 115.58984 227.31445 C 119.98243 228.16766 124.16067 228.54883 128.95703 228.54883 C 138.19036 228.54883 148.52098 226.73996 159.07031 221.5293 C 161.24631 222.65996 167.31235 226.64563 166.42969 235.33203 C 167.27872 235.24009 168.12163 235.17118 168.96094 235.11328 C 169.21743 235.09558 169.47284 235.08125 169.72852 235.06641 C 170.35311 235.03016 170.97553 235.00124 171.5957 234.98047 C 171.81704 234.97305 172.03894 234.96462 172.25977 234.95898 C 173.08821 234.93786 173.91409 234.92521 174.73633 234.92578 C 175.64621 234.92642 176.5528 234.93856 177.45703 234.95898 C 180.42503 229.64125 185.2343 218.83565 180.1543 211.70898 C 215.08896 189.22765 212.72508 150.44457 211.70508 141.75391 C 215.24241 140.75924 224.27261 138.94859 230.72461 143.80859 C 232.08508 142.15046 233.2663 140.42294 234.97656 138.89844 C 235.83169 138.13619 236.81956 137.4244 238.02734 136.79688 C 239.23513 136.16932 240.66314 135.62644 242.40039 135.20117 C 236.06306 108.50084 214.64185 96.969948 193.27734 96.541016 C 192.51433 96.525696 191.7523 96.524239 190.99023 96.537109 z "
       id="rect888"
       transform="matrix(0.75000002,0,0,-0.75000002,59.947966,269.05702)" /><path
       style="fill:#666666;fill-opacity:1;fill-rule:nonzero;stroke:none;stroke-width:0.13333333"
       d="m 208.0918,129.75391 c -2.711,0.0351 -4.07257,2.05624 -4.47335,4.66819 -18.20277,118.63182 -141.620646,92.36439 -149.634075,9.99587 -0.176355,-1.81272 -8.910211,-3.64378 -15.166016,0.0918 -3.373662,2.01454 -6.572169,4.91456 -8.77539,7.10937 0.01027,0.0173 0.01905,0.0355 0.0293,0.0527 0.416468,0.70238 0.818554,1.41225 1.214843,2.125 8.540133,-9.05479 16.801206,-6.69347 19.388672,-5.60547 1.1468,7.12133 8.324751,46.14791 29.96875,62.28125 -5.94,10.36533 -2.753791,20.48431 -0.703125,25.03125 l 4.417969,-0.0879 2.322266,-0.0469 4.048828,-0.082 c -0.940747,-5.94797 3.104766,-11.69535 6.699219,-13.42383 5.355529,1.90084 11.955889,4.24607 18.160149,5.45117 4.39259,0.85321 8.57083,1.23438 13.36719,1.23438 9.23333,0 19.56395,-1.80887 30.11328,-7.01953 2.176,1.13066 8.24204,5.11633 7.35938,13.80273 0.84903,-0.0919 1.69194,-0.16085 2.53125,-0.21875 0.25649,-0.0177 0.5119,-0.032 0.76758,-0.0469 0.62459,-0.0362 1.24701,-0.0652 1.86718,-0.0859 0.22134,-0.007 0.44324,-0.0159 0.66407,-0.0215 0.82844,-0.0211 1.65432,-0.0338 2.47656,-0.0332 0.90988,6.4e-4 1.81647,0.0128 2.7207,0.0332 2.968,-5.31773 7.77727,-16.12333 2.69727,-23.25 34.93466,-22.48133 32.57078,-61.26441 31.55078,-69.95507 3.53733,-0.99467 12.56753,-2.80532 19.01953,2.05468 0.87991,-1.07242 1.69561,-2.16978 2.61719,-3.22656 -7.74628,-5.23953 -17.57076,-10.92756 -25.25,-10.82812 z"
       transform="matrix(0.75000002,0,0,-0.75000002,59.947966,269.05702)"
       id="path70"
       inkscape:connector-curvature="0"
       sodipodi:nodetypes="csssccccccccccsscccccccccccccc" /><path
       style="fill:#333333;fill-opacity:1;fill-rule:nonzero;stroke:none;stroke-width:0.09999999"
       d="m 83.413298,153.70936 c -0.407257,0.73244 -0.810887,1.468 -1.259765,2.17823 -0.448878,0.71023 -0.942842,1.39575 -1.533692,2.03027 -0.590849,0.63451 -1.277667,1.21738 -2.110839,1.72266 -0.833172,0.50527 -1.812436,0.93286 -2.988282,1.25537 -0.9695,0.176 -1.977737,0.21377 -3.023437,0.0718 -0.7446,-0.10101 -1.299317,-0.73728 -1.299317,-1.48829 v -5.66748 c -4.1218,-2.916 -7.087711,-6.88232 -8.428711,-11.25732 -1.4668,-2.224 -2.413335,-5.09947 -2.811035,-8.56348 -0.073,-0.636 0.264885,-1.24743 0.842285,-1.52343 0.2058,-0.1 0.427961,-0.14796 0.647461,-0.14796 0.3926,0 0.779571,0.15478 1.067871,0.44679 1.127,1.14099 2.288877,2.2611 3.500977,3.39111 l 1.148437,-0.38672 c -0.3035,-1.974 -0.317883,-4.09264 -0.01318,-6.45264 0.0855,-0.673 0.613033,-1.20392 1.286132,-1.29492 l 0.200684,-0.0132 c 0.5976,0 1.148677,0.35638 1.384278,0.92139 0.332799,0.79699 0.679309,1.52787 1.037109,2.19286 0.8843,-1.152 1.974424,-1.65988 2.874024,-1.85888 0.108199,-0.024 0.217795,-0.0352 0.325195,-0.0352 0.5523,0 1.072008,0.30599 1.333008,0.81299 0.9683,1.884 2.298081,4.34496 4.059081,6.83496 l 3.862794,2.02442 c 0.3656,0.192 0.63577,0.52392 0.74707,0.91992 0.8367,2.97 0.13205,6.04835 -2.15625,9.36035 l 1.016602,0.20947 c 0.395699,0.081 0.742238,0.31818 0.960938,0.65918 0.217599,0.341 0.288088,0.7559 0.196288,1.14991 -0.0125,0.055 -0.268522,1.11281 -0.865723,2.5078 z"
       id="path866"
       inkscape:connector-curvature="0" /><path
       style="fill:#333333;fill-opacity:1;fill-rule:nonzero;stroke:none;stroke-width:0.13333333"
       d="M 244.32812 135.05273 C 243.69383 135.0601 243.04972 135.10751 242.40039 135.20117 C 240.66314 135.62644 239.23513 136.16934 238.02734 136.79688 C 236.81956 137.4244 235.83169 138.13619 234.97656 138.89844 C 233.2663 140.42294 232.08508 142.15046 230.72461 143.80859 C 230.19128 144.66059 229.66354 145.55707 229.1582 146.56641 C 229.0272 146.83245 228.99975 147.12078 228.97461 147.40625 C 228.93323 147.87617 228.98407 148.34699 229.22461 148.76172 C 229.61794 149.44572 230.32299 149.88497 231.09766 149.93164 C 231.94432 149.98764 232.67265 150.2382 233.33398 150.6582 C 231.99532 152.47287 230.6957 154.64688 229.45703 157.18555 C 229.35303 157.39888 229.28634 157.62985 229.26367 157.86719 C 228.96634 160.86985 232.30997 162.89961 236.91797 165.09961 C 236.91797 169.14894 238.17544 172.39434 240.66211 174.76367 C 241.04611 175.12901 241.54102 175.31641 242.04102 175.31641 C 242.47568 175.31641 242.91139 175.17534 243.27539 174.88867 L 245.69336 172.99023 C 246.20669 174.08623 246.68472 175.26197 247.13672 176.41797 C 247.43672 177.1873 248.17867 177.68945 249 177.68945 L 249.08203 177.6875 C 249.93403 177.65283 250.67264 177.07905 250.91797 176.26172 C 252.04997 172.47372 252.40009 169.20751 251.99609 166.32617 L 253.70312 165.4375 C 255.23781 166.82017 256.94467 168.69077 258.88867 171.13477 C 259.27534 171.62143 259.85579 171.88867 260.45312 171.88867 C 260.68648 171.88867 260.92177 171.84964 261.14844 171.76562 C 261.9591 171.46563 262.48451 170.67907 262.45117 169.81641 C 262.18984 162.75774 260.46944 157.75786 257.27344 154.50586 C 257.24944 150.18586 254.77308 146.91344 249.84375 144.77344 C 250.85708 142.90944 251.34732 140.6967 251.33398 138.08203 C 251.32465 137.0607 250.66217 136.17109 249.6875 135.87109 C 248.0495 135.3661 246.231 135.03065 244.32812 135.05273 z "
       id="path871"
       transform="matrix(0.75000002,0,0,-0.75000002,59.947966,269.05702)" /><path
       style="fill:#333333;fill-opacity:1;fill-rule:nonzero;stroke:none;stroke-width:0.13333333"
       d="M 90.730469 235.28711 L 86.681641 235.36914 C 86.682246 235.37402 86.68103 235.37793 86.681641 235.38281 C 85.917641 235.40148 85.144521 235.41746 84.367188 235.43359 C 84.365437 235.43043 84.36114 235.41921 84.359375 235.41602 L 79.941406 235.50391 L 79.087891 235.51562 C 78.409224 235.52244 77.780635 235.87243 77.417969 236.44336 C 77.053969 237.01629 77.006396 237.73348 77.289062 238.34961 C 77.693064 239.23081 78.047469 240.11058 78.355469 240.99805 C 74.822136 240.88498 71.337448 242.41554 69.050781 245.33008 C 66.092115 249.10194 66.044352 254.10219 68.929688 258.38086 C 69.280354 258.90113 69.856375 259.22643 70.484375 259.25977 C 71.521708 259.31443 72.534724 259.3418 73.525391 259.3418 C 81.94939 259.3418 88.680583 257.36798 94.03125 253.33984 C 94.43925 253.03318 94.713495 252.58031 94.798828 252.07617 C 95.480161 248.05737 94.704807 244.71893 92.494141 242.14453 C 92.407474 241.0804 92.764547 239.74456 93.560547 238.16016 C 93.876547 237.53202 93.839604 236.78035 93.460938 236.18555 C 93.082269 235.59235 92.399557 235.20221 91.712891 235.26367 C 91.390224 235.27154 91.057135 235.27831 90.730469 235.28711 z "
       id="path879"
       transform="matrix(0.75000002,0,0,-0.75000002,59.947966,269.05702)" /><path
       style="fill:#333333;fill-opacity:1;fill-rule:nonzero;stroke:none;stroke-width:0.13333333"
       d="M 174.73633 234.92578 C 172.00669 234.92387 169.24705 235.02695 166.42969 235.33203 C 165.22169 235.49243 164.04678 235.6749 162.91211 235.92188 C 162.14411 236.08694 161.54362 236.68646 161.37695 237.45312 C 160.96762 239.35996 161.21353 241.22305 162.13086 243.12305 C 160.79619 246.29491 160.472 249.54731 161.10938 253.26758 C 161.20804 253.83424 161.54316 254.3317 162.03516 254.63477 C 166.83649 257.57757 171.81517 259.05078 176.92188 259.05078 C 180.66587 259.05078 184.48366 258.25881 188.34766 256.67188 C 189.00232 256.4041 189.46507 255.81097 189.56641 255.10938 C 190.24374 250.4624 189.46457 246.88032 187.25391 244.45898 C 185.25257 242.26938 182.1379 241.113 177.97656 241.01562 C 178.1219 240.24376 178.4335 239.17327 179.04688 237.69727 C 179.29754 237.09567 179.24058 236.41079 178.89258 235.86133 C 178.57391 235.35613 178.0437 235.03605 177.45703 234.95898 C 176.5528 234.93856 175.64621 234.92642 174.73633 234.92578 z "
       id="path882"
       transform="matrix(0.75000002,0,0,-0.75000002,59.947966,269.05702)" /><path
       inkscape:connector-curvature="0"
       id="path112"
       style="fill:#333333;fill-opacity:1;fill-rule:nonzero;stroke:none;stroke-width:0.1"
       d="m 158.563,164.345 c -21.361,0 -35.443,9.199 -35.993,14.209 -2.448,24.643 8.916,39.962 39.289,80.899 2.127,2.867 4.348,5.861 6.665,8.993 0.333,0.452 0.894,0.687 1.445,0.589 0.553,-0.089 1.011,-0.479 1.186,-1.012 3.302,-10.055 6.133,-17.896 8.63,-24.813 7.224,-20.01 11.203,-31.031 13.409,-59.769 0.011,-0.13 0.004,-0.261 -0.02,-0.389 -1.59,-8.534 -8.885,-18.707 -34.611,-18.707"
       sodipodi:nodetypes="cccccccccc" /><path
       inkscape:connector-curvature="0"
       id="path130"
       style="fill:#f9f9f9;fill-opacity:1;fill-rule:nonzero;stroke:none;stroke-width:0.1"
       d="m 117.415,194.581 c -0.717,-6.546 4.853,-12.602 13.017,-13.108 8.164,-0.506 13.825,3.965 14.474,9.896 0.716,6.545 -4.94675,13.1645 -13.11025,13.67 -8.1635,0.5055 -13.73275,-4.528 -14.38075,-10.458 z"
       sodipodi:nodetypes="ccccc" /><path
       style="fill:#1a1a1a;fill-opacity:1;fill-rule:nonzero;stroke:none;stroke-width:0.13333333"
       d="M 86.742188 88.564453 C 84.93687 88.626643 82.887578 89.24325 81.392578 90.03125 C 81.387678 90.031308 81.383776 90.03119 81.378906 90.03125 C 81.37755 90.032507 81.376356 90.033899 81.375 90.035156 C 81.220767 90.178175 81.078635 90.331292 80.929688 90.478516 C 80.681937 90.727213 80.429501 90.972384 80.201172 91.234375 C 80.199967 91.235758 80.19847 91.236898 80.197266 91.238281 C 78.192476 93.540272 76.946949 96.336675 76.623047 99.300781 C 76.586393 99.635423 76.584551 99.966487 76.572266 100.29883 C 77.514485 104.38622 81.753086 107.28179 85.865234 108.23438 C 90.344439 109.272 97.982089 106.06784 98.607422 100.33984 C 99.235422 94.613197 94.744172 89.375911 88.576172 88.642578 C 87.956172 88.568908 87.343958 88.543753 86.742188 88.564453 z "
       transform="matrix(0.75000002,0,0,-0.75000002,59.947966,269.05702)"
       id="path132" /><path
       inkscape:connector-curvature="0"
       id="path134"
       style="fill:#ffffff;fill-opacity:1;fill-rule:nonzero;stroke:none;stroke-width:0.1"
       d="m 126.78516,194.11209 c -0.21205,-0.0355 -0.431,-0.0601 -0.65655,-0.0756 -2.8408,-0.19521 -5.49422,1.29878 -6.03928,3.40161 -0.21181,0.81622 -0.0799,1.62617 0.38261,2.33941 0.61975,0.95457 1.78374,1.63835 3.19408,1.87471 0.21204,0.0355 0.43083,0.061 0.65654,0.0755 2.8408,0.19521 5.49422,-1.29878 6.0401,-3.40046 0.21198,-0.8172 0.0789,-1.62633 -0.38441,-2.34073 -0.61877,-0.95439 -1.78276,-1.63818 -3.19309,-1.87453" /><path
       inkscape:connector-curvature="0"
       id="path116"
       style="fill:#ffffff;fill-opacity:1;fill-rule:nonzero;stroke:none;stroke-width:0.1"
       d="m 169.8485,204.088 c -10.037,-1.4065 -15.6985,-9.566 -13.9975,-16.267 1.345,-5.299 7.41525,-9.7955 17.45175,-8.39 10.0365,1.4055 14.85425,9.566 13.15325,16.267 -1.345,5.299 -6.5705,9.7965 -16.6075,8.39 z"
       sodipodi:nodetypes="ccccc" /><path
       style="fill:#1a1a1a;fill-opacity:1;fill-rule:nonzero;stroke:none;stroke-width:0.13333333"
       d="M 162.73242 90.994141 C 161.49507 90.969461 160.08505 91.068426 158.45117 91.208984 C 151.91567 91.771218 144.4672 96.685465 144.2832 102.4668 C 144.0992 108.24813 149.83346 111.8623 157.12891 110.99414 C 161.46313 110.47837 166.20844 107.72259 168.83984 104.29688 C 169.24568 102.12234 169.21125 99.914241 168.67773 97.8125 C 168.06657 95.40466 166.8387 93.130558 164.97656 91.240234 C 164.29427 91.089396 163.55474 91.010542 162.73242 90.994141 z "
       transform="matrix(0.75000002,0,0,-0.75000002,59.947966,269.05702)"
       id="path118" /><path
       d="m 182.60244,192.6988 c -0.19563,-0.0892 -0.40075,-0.1696 -0.61461,-0.24296 -2.69348,-0.92382 -5.64316,-0.1675 -6.71391,1.72261 -0.41584,0.73358 -0.49805,1.55007 -0.23591,2.35872 0.35157,1.08245 1.29892,2.04419 2.60003,2.63752 0.19562,0.0892 0.40035,0.17043 0.61463,0.24286 2.69347,0.92382 5.64316,0.1675 6.71439,-1.72128 0.41627,-0.73449 0.49715,-1.5505 0.23452,-2.36047 -0.35067,-1.08202 -1.29801,-2.04377 -2.59911,-2.63709"
       style="fill:#ffffff;fill-opacity:1;fill-rule:nonzero;stroke:none;stroke-width:0.1"
       id="path969"
       inkscape:connector-curvature="0" /><path
       inkscape:connector-curvature="0"
       id="path148"
       style="fill:#ed1c24;fill-opacity:1;fill-rule:nonzero;stroke:none;stroke-width:0.1"
       d="m 152.211,157.818 c -1.184,0 -2.382,0.067 -3.587,0.203 -12.294,1.388 -21.493,9.625 -20.507,18.363 0.489,4.34 3.338,8.11 8.022,10.618 4.501,2.411 10.209,3.376 16.061,2.713 12.294,-1.388 21.493,-9.625 20.507,-18.362 -0.489,-4.34 -3.338,-8.111 -8.021,-10.619 -3.575,-1.915 -7.91,-2.916 -12.475,-2.916"
       sodipodi:nodetypes="cccccccc" /><path
       inkscape:connector-curvature="0"
       id="path146"
       style="fill:#f4f4f4;fill-opacity:1;fill-rule:nonzero;stroke:none;stroke-width:0.1"
       d="m 142.367,181.389 c 0.189,-1.411 -1.205,-2.838 -3.112,-3.187 -1.907,-0.349 -3.607,0.511 -3.795,1.921 -0.189,1.411 1.205,2.837 3.112,3.187 1.907,0.349 3.607,-0.511 3.795,-1.921" /></g></svg>