<?xml version="1.0" encoding="UTF-8" standalone="no"?>
<svg
   xmlns:dc="http://purl.org/dc/elements/1.1/"
   xmlns:cc="http://creativecommons.org/ns#"
   xmlns:rdf="http://www.w3.org/1999/02/22-rdf-syntax-ns#"
   xmlns:svg="http://www.w3.org/2000/svg"
   xmlns="http://www.w3.org/2000/svg"
   xmlns:sodipodi="http://sodipodi.sourceforge.net/DTD/sodipodi-0.dtd"
   xmlns:inkscape="http://www.inkscape.org/namespaces/inkscape"
   width="103.56547mm"
   height="103.56547mm"
   viewBox="0 0 103.56547 103.56547"
   version="1.1"
   id="svg8"
   inkscape:version="1.0.1 (3bc2e813f5, 2020-09-07)"
   sodipodi:docname="logo.svg"
   inkscape:export-filename="C:\Users\Siarhei_Krukau\Projects\jprof_by_bot\logo.png"
   inkscape:export-xdpi="125.57"
   inkscape:export-ydpi="125.57">
  <defs
     id="defs2">
    <clipPath
       clipPathUnits="userSpaceOnUse"
       id="clipPath82">
      <path
         d="m 1293.16,1554.63 h 448.141 v 319.813 H 1293.16 Z"
         id="path80" />
    </clipPath>
  </defs>
  <sodipodi:namedview
     id="base"
     pagecolor="#ffffff"
     bordercolor="#666666"
     borderopacity="1.0"
     inkscape:pageopacity="0.0"
     inkscape:pageshadow="2"
     inkscape:zoom="1.4"
     inkscape:cx="166.80738"
     inkscape:cy="223.42281"
     inkscape:document-units="mm"
     inkscape:current-layer="layer1"
     inkscape:document-rotation="0"
     showgrid="false"
     inkscape:pagecheckerboard="true"
     inkscape:snap-global="false"
     fit-margin-top="0"
     fit-margin-left="0"
     fit-margin-right="0"
     fit-margin-bottom="0"
     inkscape:window-width="1920"
     inkscape:window-height="1000"
     inkscape:window-x="-11"
     inkscape:window-y="-11"
     inkscape:window-maximized="1" />
  <metadata
     id="metadata5">
    <rdf:RDF>
      <cc:Work
         rdf:about="">
        <dc:format>image/svg+xml</dc:format>
        <dc:type
           rdf:resource="http://purl.org/dc/dcmitype/StillImage" />
        <dc:title></dc:title>
      </cc:Work>
    </rdf:RDF>
  </metadata>
  <g
     inkscape:label="Layer 1"
     inkscape:groupmode="layer"
     id="layer1"
     transform="translate(-26.637829,-96.868675)">
    <rect
       style="fill:#ffffff;stroke-width:0.264583;stroke-linejoin:round"
       id="rect1308"
       width="103.56547"
       height="103.56547"
       x="26.637829"
       y="96.868675" />
    <g
       id="g1338"
       transform="translate(0.46542621,6.2615017)">
      <path
         id="path1259"
         style="fill:#ffffff;stroke-width:0.999999;stroke-linejoin:round"
         d="m 356.31641,509.03125 c -0.64055,-0.0102 -1.28007,-0.009 -1.91993,0.002 -2.11815,0.037 -4.23023,0.18958 -6.31836,0.45508 -2.81087,0.35627 -5.44945,0.92192 -7.88085,1.64063 2.66156,2.33608 3.76147,7.25314 3.54296,15.72461 l -0.0312,0.31445 c -1.96161,10.52862 -10.45182,22.92086 -38.88086,24.71484 -0.56826,0.36221 -1.15483,0.71273 -1.77148,1.04297 -4.76667,2.55334 -10.54615,3.88867 -16.63281,3.88867 -1.57867,0 -3.17654,-0.0901 -4.78321,-0.27148 -12.0689,-1.3626 -21.89304,-7.67735 -25.71484,-15.5625 -3.88726,-2.78512 -6.11296,-5.6054 -6.35547,-7.81445 -0.96518,-9.71694 -1.46465,-15.28372 -0.67773,-19.59571 -6.86855,-3.66276 -18.92931,-4.89966 -30.93555,-0.29101 -9.24173,3.54531 -25.26497,13.55737 -29.9707,40.83203 0.63269,0.36912 1.233,0.82256 1.8164,1.31445 3.78027,-9.05201 21.16819,-10.86163 27.88672,-5.09766 2.68743,2.30391 2.36083,5.32059 0.65821,7.4375 1.14614,6.29939 4.70956,23.13406 12.41796,38.08594 0.18268,0.19469 0.3613,0.401 0.5293,0.62891 5.088,6.87734 13.18803,12.63256 20.19336,17.39258 7.456,5.06264 15.62584,8.79908 24.45117,10.67773 30.15334,6.42267 68.01607,-9.66427 81.30274,-37.9043 4.05066,-8.60798 6.46281,-16.36242 4.88281,-25.75976 -1.05866,-6.29465 -3.32262,-15.2112 2.24805,-20.08984 8.72256,-7.64013 25.38707,1.28192 34.08398,6.36718 1.15263,-0.98795 2.32726,-1.76293 3.50781,-2.3125 -5.83415,-24.83838 -25.79158,-35.50312 -45.64843,-35.82031 z m 26.55078,36.01563 c -0.0514,7.9e-4 -0.0992,0.007 -0.15039,0.008 1.24651,-0.0259 2.54805,0.0261 3.87109,0.18554 -1.26977,-0.15246 -2.52021,-0.21276 -3.7207,-0.19335 z m 3.75195,0.19531 c 0.59417,0.0723 1.19305,0.17538 1.79297,0.29492 -0.59986,-0.11928 -1.19886,-0.22283 -1.79297,-0.29492 z m -13.61328,1.45898 c -0.45035,0.14649 -0.74118,0.25176 -0.81836,0.28125 -0.0759,0.0288 -0.14443,0.0685 -0.21484,0.10547 0.07,-0.0367 0.13938,-0.0749 0.21484,-0.10351 0.0778,-0.0297 0.36145,-0.13501 0.81836,-0.28321 z m -1.25586,0.52344 c -0.0549,0.0389 -0.11184,0.0753 -0.16211,0.11914 0.0503,-0.0438 0.10717,-0.0803 0.16211,-0.11914 z m -153.86914,7.83789 c 0.008,0.0542 0.14808,0.92064 0.35742,2.10547 -0.18199,-1.04454 -0.35008,-2.05469 -0.35742,-2.10547 z m -26.85156,1.52734 c 0.12403,0.13176 0.25004,0.2587 0.37109,0.39649 -0.12162,-0.13637 -0.24651,-0.26611 -0.37109,-0.39649 z m 0.78125,0.87891 c 0.29776,0.36628 0.59182,0.74073 0.86914,1.14453 -0.27778,-0.40463 -0.56947,-0.78065 -0.86914,-1.14453 z m 40.86328,41.87305 c 0.4293,0.74628 0.87044,1.48264 1.32226,2.21093 -0.45146,-0.72795 -0.89328,-1.46504 -1.32226,-2.21093 z m 1.78906,2.95703 c 0.45932,0.72083 0.93166,1.42871 1.41406,2.12695 -0.48231,-0.69836 -0.95483,-1.40602 -1.41406,-2.12695 z m 1.86914,2.79101 c 0.15171,0.21384 0.30698,0.42342 0.46094,0.63477 -0.15377,-0.21116 -0.30942,-0.42112 -0.46094,-0.63477 z m 1.50977,2.03125 c 0.17379,0.22446 0.34495,0.4508 0.52148,0.67188 -0.17639,-0.22099 -0.34784,-0.44752 -0.52148,-0.67188 z m 1.8125,2.22266 c 0.16511,0.19154 0.33065,0.38188 0.49804,0.57031 -0.1674,-0.18852 -0.33292,-0.37868 -0.49804,-0.57031 z m 2.03125,2.22461 c 0.0968,0.0991 0.19741,0.19294 0.29492,0.29102 -0.0975,-0.0981 -0.19813,-0.19184 -0.29492,-0.29102 z m 1.74609,1.68359 c 0.1372,0.12578 0.27161,0.2553 0.41016,0.37891 -0.13831,-0.12343 -0.2732,-0.25332 -0.41016,-0.37891 z m 2.10156,1.80078 c 0.15461,0.12302 0.31061,0.24301 0.4668,0.36329 -0.15612,-0.12026 -0.31226,-0.24029 -0.4668,-0.36329 z m 2.32227,1.71289 c 0.1145,0.0767 0.21936,0.1634 0.3125,0.25782 -0.0934,-0.0949 -0.19756,-0.18085 -0.3125,-0.25782 z m 90.68359,3.39063 c 0.023,0.11224 0.0462,0.2238 0.0879,0.33008 -0.0415,-0.10612 -0.065,-0.21804 -0.0879,-0.33008 z m -80.45312,4.52734 c -0.12807,0.01 -0.25541,0.0326 -0.37891,0.0664 0.24449,-0.0671 0.50256,-0.0874 0.75781,-0.0586 -0.12697,-0.0145 -0.25279,-0.0175 -0.3789,-0.008 z m 83.39062,0.58985 c 0.0991,0.42588 0.17078,0.86236 0.21485,1.30859 -0.0441,-0.44619 -0.1157,-0.88276 -0.21485,-1.30859 z m -95.96094,0.37304 c -0.17504,0.59494 -0.31484,1.18549 -0.43359,1.76954 0.11883,-0.58467 0.25835,-1.17395 0.43359,-1.76954 z m 90.76172,17.71094 c -0.828,0.0132 -1.6189,0.0369 -2.3789,0.0781 v 0.002 c 0.76,-0.0412 1.5509,-0.0687 2.3789,-0.0801 z"
         transform="scale(0.26458333)" />
      <path
         d="m 89.834206,135.09963 c -0.935213,-0.61877 -2.133952,-0.073 -3.402894,0.50553 -1.426634,0.64982 -2.902656,1.32115 -4.106687,0.55492 -2.049286,-1.30493 -3.130197,-6.56343 -3.2131,-15.62841 -0.0021,-0.22719 -0.149578,-0.42792 -0.366183,-0.49847 -0.216253,-0.0709 -0.45332,0.006 -0.588786,0.18873 -4.588581,6.2036 -7.484181,9.29922 -9.40047,11.34745 -3.25367,3.47804 -3.30447,3.65513 -2.72415,9.49749 0.194027,1.76741 5.161844,5.01262 12.697531,5.01262 9.075562,0 11.649076,-3.58881 12.209992,-6.59942 l 0.0085,-0.0833 c 0.06244,-2.42077 -0.281164,-3.74615 -1.11372,-4.29719"
         style="fill:#a7a5a6;fill-opacity:1;fill-rule:nonzero;stroke:none;stroke-width:0.0352778"
         id="path68" />
      <path
         d="m 104.97719,145.32666 c 0.16722,-0.19191 0.34326,-0.35913 0.52388,-0.51259 -2.28071,-1.33773 -6.762752,-3.77013 -9.093908,-1.72826 -1.473905,1.29082 -0.875241,3.6502 -0.595136,5.31566 0.418042,2.48638 -0.220133,4.53778 -1.291872,6.81531 -3.515431,7.47184 -13.532909,11.7281 -21.510979,10.02877 -2.335036,-0.49706 -4.496859,-1.48555 -6.469592,-2.82504 -1.853495,-1.25942 -3.99662,-2.78201 -5.34282,-4.60164 -0.04445,-0.0603 -0.09172,-0.115 -0.140053,-0.16651 1.141589,2.21439 2.622903,4.25732 4.521906,5.53332 0.242358,0.16228 0.306917,0.49072 0.144639,0.73343 -1.935339,2.89348 -0.512233,5.82891 -0.166511,6.45371 0.205669,-0.004 0.41028,-0.008 0.612422,-0.0134 -0.236361,-1.88845 0.891822,-3.27628 1.956506,-4.05627 -0.03775,-0.0205 -0.06032,-0.0332 -0.0635,-0.0349 -0.254,-0.14464 -0.342195,-0.46743 -0.197203,-0.72143 0.144286,-0.254 0.468489,-0.34219 0.721431,-0.19826 0.0028,0.002 0.311855,0.17674 0.860072,0.42616 2.454275,1.10666 8.892823,3.30909 15.633348,-0.14076 0.335492,-0.16933 0.693561,-0.36865 1.09855,-0.61101 0.25012,-0.15029 0.575381,-0.0692 0.725664,0.18203 0.150283,0.25047 0.06879,0.57573 -0.182033,0.72602 -0.113947,0.0681 -0.216606,0.12523 -0.324203,0.18732 1.004006,0.72849 2.07257,2.08877 1.945922,4.12426 0.201084,-0.0109 0.410634,-0.0176 0.629709,-0.0211 0.533752,-0.87701 2.463447,-4.32404 0.760941,-5.8498 -0.125236,-0.11254 -0.189441,-0.27693 -0.173566,-0.4445 0.01587,-0.16722 0.110066,-0.31679 0.254,-0.40322 10.374846,-6.23041 8.349545,-18.09292 8.328025,-18.21216 -0.04551,-0.25047 0.09384,-0.49883 0.331964,-0.58914 0.166158,-0.0635 3.887607,-1.44321 6.502397,0.60396"
         style="fill:#a7a5a6;fill-opacity:1;fill-rule:nonzero;stroke:none;stroke-width:0.0352778"
         id="path70" />
      <path
         d="m 98.37284,154.37717 c 0.432859,-1.15323 0.753534,-2.33609 0.848431,-3.46463 0.01799,-0.20884 0.01976,-0.41875 0.01587,-0.62865 -0.137231,1.24954 -0.401108,2.64619 -0.864306,4.09328"
         style="fill:#a7a5a6;fill-opacity:1;fill-rule:nonzero;stroke:none;stroke-width:0.0352778"
         id="path72" />
      <path
         d="m 57.388527,146.47671 c 0.140758,0.0815 0.236008,0.22296 0.259291,0.38347 0.0025,0.0173 0.04163,0.2794 0.121709,0.7172 0.451908,-0.56021 0.539397,-1.35925 -0.172509,-1.96956 -1.777612,-1.52506 -6.378187,-1.04634 -7.378383,1.34867 0.276719,0.23319 0.533718,0.51188 0.761365,0.84349 3.183432,-3.12455 6.374801,-1.34196 6.408527,-1.32327"
         style="fill:#a7a5a6;fill-opacity:1;fill-rule:nonzero;stroke:none;stroke-width:0.0352778"
         id="path74" />
      <path
         d="m 98.474793,144.7227 c -0.238125,0.0903 -0.377472,0.33867 -0.331964,0.58914 0.02152,0.11924 2.046821,11.98175 -8.328025,18.21216 -0.143934,0.0864 -0.238125,0.236 -0.254,0.40322 -0.01588,0.16757 0.04833,0.33196 0.173566,0.4445 1.702506,1.52576 -0.227189,4.97279 -0.760941,5.8498 -0.219075,0.003 -0.428625,0.0102 -0.629709,0.0211 0.126648,-2.03549 -0.941916,-3.39577 -1.945922,-4.12426 0.107597,-0.0621 0.210256,-0.11924 0.324203,-0.18732 0.250825,-0.15029 0.332316,-0.47555 0.182033,-0.72602 -0.150283,-0.25118 -0.475544,-0.33232 -0.725664,-0.18203 -0.404989,0.24236 -0.763058,0.44168 -1.09855,0.61101 -6.740525,3.44985 -13.179073,1.24742 -15.633348,0.14076 -0.548217,-0.24942 -0.85725,-0.42439 -0.860072,-0.42616 -0.252942,-0.14393 -0.577145,-0.0557 -0.721431,0.19826 -0.144992,0.254 -0.0568,0.57679 0.197203,0.72143 0.0032,0.002 0.02575,0.0145 0.0635,0.0349 -1.064684,0.77999 -2.192867,2.16782 -1.956506,4.05627 -0.202142,0.005 -0.406753,0.009 -0.612422,0.0134 -0.345722,-0.6248 -1.768828,-3.56023 0.166511,-6.45371 0.162278,-0.24271 0.09772,-0.57115 -0.144639,-0.73343 -6.124223,-4.1148 -7.913512,-16.20379 -7.930798,-16.3255 -0.02328,-0.16051 -0.118533,-0.30197 -0.259291,-0.38347 -0.03373,-0.0187 -3.225095,-1.80128 -6.408527,1.32327 -0.354682,-0.51646 -0.774453,-0.91863 -1.241883,-1.19133 1.245058,-7.21642 5.484601,-9.86543 7.92981,-10.80346 3.635728,-1.39559 7.290858,-0.76553 8.882945,0.53445 0.421922,0.34431 0.899583,0.90735 0.778933,1.63266 -0.02505,0.15028 0.01588,0.30409 0.112536,0.42227 0.09701,0.11783 0.239889,0.18839 0.392289,0.19333 l 17.719676,0.5715 c 0.159456,0.0113 0.292453,-0.0529 0.395817,-0.15911 0.103717,-0.10654 0.158044,-0.25117 0.14993,-0.39969 -0.09737,-1.7198 2.480381,-3.3528 5.995812,-3.79836 5.893153,-0.7493 12.498915,1.87078 14.257165,9.35637 -0.49107,0.2286 -0.97931,0.58702 -1.44463,1.1176 -2.61091,-1.97132 -6.26886,-0.6163 -6.433607,-0.55351 z m 12.830177,4.23792 c -0.006,-1.143 -0.66146,-2.00871 -1.96568,-2.57492 0.26811,-0.49319 0.39758,-1.07844 0.39405,-1.77024 -0.002,-0.27023 -0.17744,-0.50553 -0.43532,-0.58491 -0.57785,-0.17815 -1.24108,-0.27658 -1.92829,-0.17744 -1.91629,-8.07368 -9.044867,-10.90507 -15.406862,-10.10074 -3.860448,0.4893 -6.574367,2.2285 -6.892573,4.33247 L 68.399427,137.5472 c -0.06068,-0.74118 -0.466019,-1.44498 -1.179336,-2.02706 -1.823155,-1.48907 -5.923845,-2.24014 -9.931012,-0.70344 -2.635074,1.01142 -7.185767,3.83329 -8.560789,11.42118 -0.342018,-0.0621 -0.697547,-0.0751 -1.066447,-0.025 -0.262678,0.0356 -0.458364,0.25964 -0.458364,0.52458 v 1.99954 c -1.45408,1.0287 -2.500313,2.42782 -2.973388,3.97122 -0.517454,0.78458 -0.851605,1.79917 -0.991905,3.02119 -0.02575,0.22437 0.0937,0.43991 0.297391,0.53728 0.0726,0.0353 0.150884,0.0522 0.228318,0.0522 0.138501,0 0.27492,-0.0547 0.376626,-0.15769 0.39758,-0.40252 0.807543,-0.79728 1.235145,-1.19592 l 0.404989,0.13618 c -0.107068,0.69638 -0.112148,1.44391 -0.0047,2.27647 0.03016,0.23742 0.216605,0.42474 0.45406,0.45685 l 0.07084,0.005 c 0.21082,0 0.404848,-0.12594 0.487962,-0.32526 0.117405,-0.28116 0.239642,-0.53869 0.365866,-0.77329 0.311961,0.4064 0.696877,0.58526 1.014236,0.65546 0.03817,0.008 0.07648,0.0127 0.114371,0.0127 0.194839,0 0.37853,-0.1083 0.470605,-0.28716 0.341595,-0.66463 0.810543,-1.53246 1.431784,-2.41088 l 1.362746,-0.71402 c 0.128975,-0.0677 0.224331,-0.18521 0.263595,-0.32491 0.295169,-1.04775 0.0466,-2.1336 -0.760659,-3.302 l 0.358281,-0.0737 c 0.139594,-0.0286 0.261831,-0.11254 0.338984,-0.23283 0.07676,-0.1203 0.101988,-0.26635 0.0696,-0.40535 -0.0044,-0.0194 -0.09483,-0.39299 -0.305506,-0.88512 2.259578,-2.39571 4.445424,-1.77059 5.130025,-1.48272 0.303424,1.88419 2.202356,12.20999 7.928998,16.4786 -1.571625,2.7425 -0.728486,5.41969 -0.185914,6.62274 l -0.225777,0.003 c -0.179564,0.002 -0.345723,0.0945 -0.441678,0.24557 -0.09631,0.15159 -0.109009,0.34107 -0.03422,0.50408 0.106892,0.23315 0.200378,0.46606 0.28187,0.70087 -0.934861,-0.0299 -1.85667,0.37511 -2.461684,1.14624 -0.782814,0.99798 -0.795514,2.32089 -0.0321,3.45296 0.09278,0.13765 0.245181,0.22366 0.411339,0.23248 0.274462,0.0145 0.542573,0.0215 0.804687,0.0215 2.22885,0 4.009672,-0.522 5.425369,-1.58778 0.10795,-0.0811 0.180623,-0.20105 0.2032,-0.33443 0.18027,-1.06331 -0.02505,-1.94635 -0.609952,-2.62749 -0.02293,-0.28156 0.07161,-0.63529 0.282222,-1.05449 0.08361,-0.16619 0.07373,-0.36477 -0.02646,-0.52215 -0.100188,-0.15695 -0.280458,-0.26031 -0.462138,-0.24405 -0.08537,0.002 -0.173567,0.004 -0.259998,0.006 -0.316794,-2.00297 1.404409,-3.15553 2.0066,-3.49102 1.612548,0.70062 4.550834,1.70854 8.10754,1.70854 2.442986,0 5.175956,-0.47876 7.967134,-1.85741 0.575733,0.29915 2.180872,1.35361 1.947333,3.65188 -0.319617,0.0424 -0.630414,0.0907 -0.930628,0.156 -0.2032,0.0437 -0.36195,0.20242 -0.406047,0.40527 -0.108303,0.50451 -0.04339,0.99769 0.199319,1.5004 -0.35313,0.83922 -0.438855,1.69968 -0.270227,2.684 0.02611,0.14994 0.115005,0.28142 0.24518,0.3616 1.270353,0.77862 2.587625,1.16833 3.938764,1.16833 0.9906,0 2.000251,-0.20948 3.022601,-0.62935 0.173213,-0.0708 0.29598,-0.22779 0.322791,-0.41342 0.179211,-1.22951 -0.02681,-2.17731 -0.611716,-2.81796 -0.52952,-0.57933 -1.353962,-0.88512 -2.454981,-0.91087 0.03845,-0.20422 0.121003,-0.48757 0.28328,-0.8781 0.06632,-0.15917 0.05115,-0.34036 -0.04092,-0.48574 -0.08431,-0.13367 -0.224366,-0.21844 -0.379589,-0.23883 0.785284,-1.40698 2.0574,-4.26618 0.713317,-6.15177 9.24313,-5.94819 8.618009,-16.20944 8.348134,-18.50884 0.935916,-0.26318 3.324936,-0.74225 5.032026,0.54363 -0.14111,0.22542 -0.28046,0.46284 -0.41416,0.72989 -0.0917,0.18627 -0.0847,0.40464 0.0176,0.58103 0.10406,0.18097 0.29033,0.29668 0.4953,0.30903 0.22401,0.0148 0.41663,0.0815 0.5916,0.19262 -0.35419,0.48013 -0.69779,1.05516 -1.02552,1.72685 -0.0275,0.0564 -0.0452,0.11747 -0.0511,0.18026 -0.0787,0.79446 0.80609,1.33174 2.02529,1.91382 0,1.07139 0.33232,1.93005 0.99025,2.55694 0.1016,0.0967 0.23283,0.14605 0.36513,0.14605 0.115,0 0.23036,-0.0374 0.32667,-0.11324 l 0.63958,-0.50201 c 0.13582,0.28999 0.26247,0.60078 0.38206,0.90664 0.0794,0.20356 0.27552,0.33655 0.49283,0.33655 l 0.0219,-3.5e-4 c 0.22543,-0.009 0.42052,-0.16087 0.48543,-0.37712 0.29951,-1.00224 0.39229,-1.86655 0.28539,-2.6289 l 0.45191,-0.2353 c 0.40605,0.36583 0.85725,0.86078 1.3716,1.50742 0.10231,0.12876 0.25612,0.19967 0.41416,0.19967 0.0617,0 0.12383,-0.0106 0.1838,-0.0328 0.21449,-0.0794 0.35384,-0.28751 0.34502,-0.51576 -0.0692,-1.86761 -0.52458,-3.19052 -1.37019,-4.05095"
         style="fill:#231f20;fill-opacity:1;fill-rule:nonzero;stroke:none;stroke-width:0.0352778"
         id="path108" />
      <path
         d="m 89.713556,138.32508 c -0.547511,2.93864 -3.055055,6.16691 -11.689645,6.16691 -7.481359,0 -12.027959,-3.23427 -12.171187,-4.54096 -0.902758,-9.08403 3.708753,-14.57255 16.110657,-31.34007 4.563534,13.89803 6.711598,16.18826 7.750175,29.71412"
         style="fill:#2c2a2a;fill-opacity:1;fill-rule:nonzero;stroke:none;stroke-width:0.0352778"
         id="path110" />
      <path
         d="m 81.7817,109.74619 c -0.600427,0.81104 -1.182158,1.59491 -1.744839,2.35374 -10.537825,14.20283 -14.48047,19.51708 -13.657792,27.79889 0.08784,0.79975 4.04742,4.064 11.644842,4.064 6.663267,0 10.41647,-1.90641 11.156598,-5.66773 -0.76835,-9.94198 -2.154414,-13.78126 -4.665486,-20.73628 -0.801511,-2.22073 -1.700036,-4.70958 -2.733323,-7.81262 z m -3.757789,35.27496 c -7.535686,0 -12.503503,-3.2452 -12.697531,-5.01262 -0.8636,-8.6935 3.145367,-14.0977 13.860287,-28.53937 0.750358,-1.01141 1.533878,-2.06763 2.351264,-3.17253 0.117475,-0.15945 0.315383,-0.24236 0.509764,-0.20779 0.195086,0.0314 0.356658,0.16899 0.418394,0.35702 1.164873,3.54718 2.163587,6.31331 3.044473,8.75347 2.548467,7.05909 3.952169,10.94705 4.730397,21.08518 0.0039,0.0459 0.0014,0.0921 -0.0071,0.13723 -0.560917,3.0106 -3.134431,6.59941 -12.209993,6.59941"
         style="fill:#231f20;fill-opacity:1;fill-rule:nonzero;stroke:none;stroke-width:0.0352778"
         id="path112" />
      <path
         d="m 81.8198,139.33543 c -2.121605,0 -3.825522,-1.09573 -4.239683,-2.72626 -0.528461,-2.08245 1.2319,-4.34199 3.9243,-5.03697 0.533047,-0.13793 1.073856,-0.20778 1.606903,-0.20778 2.121958,0 3.825875,1.09573 4.240036,2.72627 0.528109,2.08244 -1.232253,4.34198 -3.9243,5.03696 -0.533047,0.13793 -1.073856,0.20778 -1.607256,0.20778"
         style="fill:#ffffff;fill-opacity:1;fill-rule:nonzero;stroke:none;stroke-width:0.0352778"
         id="path114" />
      <path
         d="m 83.111673,130.83525 h -3.53e-4 c -0.57785,0 -1.163108,0.0755 -1.739195,0.22437 -2.973916,0.768 -4.905022,3.31576 -4.304947,5.67972 0.474486,1.86937 2.384425,3.12491 4.752622,3.12491 0.57785,0 1.163109,-0.0755 1.739195,-0.22437 2.973917,-0.76729 4.905023,-3.31541 4.304947,-5.67937 -0.474486,-1.86937 -2.384072,-3.12526 -4.752269,-3.12526 z m -3.53e-4,1.05833 c 1.825625,0 3.364089,0.89747 3.727097,2.32728 0.457553,1.8034 -1.128889,3.77084 -3.544005,4.39455 -0.500239,0.12912 -0.997303,0.1905 -1.474612,0.1905 -1.825625,0 -3.364089,-0.89746 -3.726744,-2.32727 -0.457906,-1.8034 1.128889,-3.77084 3.543653,-4.39456 0.500591,-0.12911 0.997655,-0.1905 1.474611,-0.1905"
         style="fill:#231f20;fill-opacity:1;fill-rule:nonzero;stroke:none;stroke-width:0.0352778"
         id="path116" />
      <path
         d="m 87.863942,133.96051 c -0.08467,-0.33443 -0.217311,-0.6477 -0.388408,-0.93945 -0.654403,-0.56091 -1.683103,-0.85125 -2.854325,-0.71473 -2.035881,0.23778 -3.725334,1.67041 -3.774017,3.20005 -0.04868,1.52965 1.561747,2.57669 3.597628,2.33892 1.468614,-0.17145 2.753431,-0.96626 3.375378,-1.96956 0.1778,-0.62618 0.206022,-1.27705 0.04374,-1.91523"
         style="fill:#231f20;fill-opacity:1;fill-rule:nonzero;stroke:none;stroke-width:0.0352778"
         id="path118" />
      <path
         d="m 84.767612,134.54542 c -0.87877,0 -1.541639,-0.37395 -1.649236,-0.93028 -0.04551,-0.23601 0.01376,-0.48119 0.171802,-0.71014 0.288925,-0.41769 0.868539,-0.73695 1.551517,-0.85478 0.18027,-0.0314 0.36195,-0.0473 0.53975,-0.0473 0.879122,0 1.541639,0.37359 1.649236,0.92992 0.04551,0.23601 -0.01376,0.48154 -0.172155,0.71014 -0.28822,0.41769 -0.868186,0.73731 -1.551164,0.85513 -0.180622,0.0314 -0.36195,0.0473 -0.53975,0.0473"
         style="fill:#ffffff;fill-opacity:1;fill-rule:nonzero;stroke:none;stroke-width:0.0352778"
         id="path120" />
      <path
         d="m 85.381445,131.82656 v 0 c -0.187678,0 -0.379589,0.0166 -0.570089,0.0497 -0.728486,0.12559 -1.351139,0.47237 -1.666169,0.92816 -0.185561,0.26881 -0.255059,0.56056 -0.200025,0.84419 0.123825,0.64171 0.856191,1.07315 1.82245,1.07315 0.187678,0 0.379236,-0.0169 0.569736,-0.0497 0.728486,-0.12559 1.351492,-0.47272 1.666522,-0.92851 0.185561,-0.26881 0.254706,-0.56056 0.200025,-0.84384 -0.12453,-0.64171 -0.856544,-1.07315 -1.82245,-1.07315 z m 0,0.35277 c 0.765175,0 1.383595,0.30974 1.476022,0.78705 0.112184,0.58032 -0.595489,1.18851 -1.580091,1.3582 -0.174273,0.03 -0.34537,0.0445 -0.509764,0.0445 -0.765175,0 -1.383948,-0.31009 -1.476375,-0.78705 -0.111831,-0.58032 0.595489,-1.18816 1.580091,-1.3582 0.174273,-0.03 0.345723,-0.0445 0.510117,-0.0445"
         style="fill:#231f20;fill-opacity:1;fill-rule:nonzero;stroke:none;stroke-width:0.0352778"
         id="path122" />
      <path
         d="m 83.111673,130.83525 h -3.53e-4 c -0.57785,0 -1.163108,0.0755 -1.739195,0.22437 -2.973916,0.768 -4.905022,3.31576 -4.304947,5.67972 0.474486,1.86937 2.384425,3.12491 4.752622,3.12491 0.57785,0 1.163109,-0.0755 1.739195,-0.22437 2.973917,-0.76729 4.905023,-3.31541 4.304947,-5.67937 -0.474486,-1.86937 -2.384072,-3.12526 -4.752269,-3.12526 z m -3.53e-4,1.05833 c 1.825625,0 3.364089,0.89747 3.727097,2.32728 0.457553,1.8034 -1.128889,3.77084 -3.544005,4.39455 -0.500239,0.12912 -0.997303,0.1905 -1.474612,0.1905 -1.825625,0 -3.364089,-0.89746 -3.726744,-2.32727 -0.457906,-1.8034 1.128889,-3.77084 3.543653,-4.39456 0.500591,-0.12911 0.997655,-0.1905 1.474611,-0.1905"
         style="fill:#231f20;fill-opacity:1;fill-rule:nonzero;stroke:none;stroke-width:0.0352778"
         id="path124" />
      <path
         d="m 78.554842,136.42925 c -0.457553,-1.8034 1.128889,-3.77084 3.543653,-4.39455 0.211667,-0.055 0.422275,-0.0931 0.631119,-0.12383 -0.358422,0.0243 -0.7239,0.0783 -1.092905,0.17321 -2.414764,0.62372 -4.001559,2.59116 -3.543653,4.39456 0.417336,1.64535 2.393244,2.58198 4.570236,2.2606 -1.988608,0.13405 -3.720395,-0.78211 -4.10845,-2.30999"
         style="fill:#d3d2d2;fill-opacity:1;fill-rule:nonzero;stroke:none;stroke-width:0.0352778"
         id="path126" />
      <path
         d="m 68.559941,138.62811 c -0.201789,0 -0.407105,-0.0123 -0.609953,-0.036 -2.380544,-0.28328 -4.13773,-2.15829 -3.916539,-4.18006 0.200025,-1.82316 1.97097,-3.19758 4.120092,-3.19758 0.202142,0 0.407106,0.012 0.609953,0.0356 2.38125,0.28328 4.137731,2.15865 3.916539,4.18006 -0.199672,1.82351 -1.970969,3.19793 -4.120092,3.19793"
         style="fill:#ffffff;fill-opacity:1;fill-rule:nonzero;stroke:none;stroke-width:0.0352778"
         id="path128" />
      <path
         d="m 68.153541,130.68462 v 0 c -2.41935,7e-4 -4.417131,1.57797 -4.645731,3.66994 -0.252941,2.30929 1.712031,4.44571 4.379737,4.76286 0.223661,0.0264 0.449791,0.0399 0.672747,0.0399 2.419703,0 4.416778,-1.57727 4.645731,-3.66959 0.252589,-2.30894 -1.712031,-4.44571 -4.380089,-4.76251 -0.223309,-0.0264 -0.449439,-0.0406 -0.672395,-0.0406 z m 0,1.05833 c 0.179917,0 0.362656,0.0109 0.547864,0.0328 2.096911,0.24941 3.642784,1.85984 3.452636,3.59692 -0.173566,1.58397 -1.730375,2.72627 -3.593747,2.72627 -0.179917,0 -0.363008,-0.0106 -0.547511,-0.0328 -2.097264,-0.24906 -3.643489,-1.85914 -3.453342,-3.59657 0.173919,-1.58362 1.731081,-2.72592 3.5941,-2.72662"
         style="fill:#231f20;fill-opacity:1;fill-rule:nonzero;stroke:none;stroke-width:0.0352778"
         id="path130" />
      <path
         d="m 66.670463,131.53446 c -0.656166,-0.078 -1.282347,0.0512 -1.80975,0.32914 -0.746125,0.64488 -1.245658,1.51024 -1.352903,2.49096 -0.01975,0.1771 -0.02152,0.35243 -0.01552,0.5267 0.295981,1.10419 1.299281,1.98896 2.577748,2.14066 1.631597,0.19402 3.089275,-0.87701 3.254728,-2.39254 0.166158,-1.51518 -1.022351,-2.9009 -2.654301,-3.09492"
         style="fill:#231f20;fill-opacity:1;fill-rule:nonzero;stroke:none;stroke-width:0.0352778"
         id="path132" />
      <path
         d="m 66.911058,134.10903 c -0.07585,0 -0.153459,-0.004 -0.232834,-0.012 -0.999772,-0.0977 -1.835855,-0.77224 -1.902883,-1.53565 -0.02611,-0.29633 0.06703,-0.57044 0.269522,-0.79163 0.271286,-0.29598 0.716139,-0.46602 1.220611,-0.46602 0.07585,0 0.153459,0.004 0.232834,0.012 0.999772,0.0977 1.835855,0.77224 1.903236,1.53529 0.02611,0.29669 -0.06738,0.57045 -0.270228,0.79199 -0.270933,0.29598 -0.715786,0.46602 -1.220258,0.46602"
         style="fill:#ffffff;fill-opacity:1;fill-rule:nonzero;stroke:none;stroke-width:0.0352778"
         id="path134" />
      <path
         d="m 66.911058,133.93264 c -0.07056,0 -0.14217,-0.004 -0.215547,-0.0109 -0.90417,-0.0885 -1.68522,-0.70449 -1.744487,-1.37583 -0.05433,-0.61665 0.519642,-1.06574 1.314803,-1.06574 0.0702,0 0.14217,0.004 0.215547,0.0109 0.903817,0.0885 1.68522,0.70449 1.744487,1.37548 0.05433,0.617 -0.519995,1.06609 -1.314803,1.06609 z m 1.666169,-1.09714 c -0.07479,-0.8449 -0.980016,-1.58997 -2.061986,-1.69545 -0.08326,-0.008 -0.167217,-0.0127 -0.249414,-0.0127 -0.1016,0 -0.197908,0.0134 -0.294569,0.0257 -0.484364,0.22155 -0.918986,0.51365 -1.283406,0.86431 -0.07161,0.17533 -0.10548,0.36442 -0.08819,0.55951 0.07444,0.8449 0.980016,1.58997 2.061633,1.69615 0.08361,0.008 0.16757,0.0123 0.249767,0.0123 0.553861,0 1.045986,-0.19085 1.350786,-0.52317 0.233539,-0.25506 0.345369,-0.5842 0.315383,-0.92675"
         style="fill:#231f20;fill-opacity:1;fill-rule:nonzero;stroke:none;stroke-width:0.0352778"
         id="path136" />
      <path
         d="m 68.153541,130.68462 v 0 c -2.41935,7e-4 -4.417131,1.57797 -4.645731,3.66994 -0.252941,2.30929 1.712031,4.44571 4.379737,4.76286 0.223661,0.0264 0.449791,0.0399 0.672747,0.0399 2.419703,0 4.416778,-1.57727 4.645731,-3.66959 0.252589,-2.30894 -1.712031,-4.44571 -4.380089,-4.76251 -0.223309,-0.0264 -0.449439,-0.0406 -0.672395,-0.0406 z m 0,1.05833 c 0.179917,0 0.362656,0.0109 0.547864,0.0328 2.096911,0.24941 3.642784,1.85984 3.452636,3.59692 -0.173566,1.58397 -1.730375,2.72627 -3.593747,2.72627 -0.179917,0 -0.363008,-0.0106 -0.547511,-0.0328 -2.097264,-0.24906 -3.643489,-1.85914 -3.453342,-3.59657 0.173919,-1.58362 1.731081,-2.72592 3.5941,-2.72662"
         style="fill:#231f20;fill-opacity:1;fill-rule:nonzero;stroke:none;stroke-width:0.0352778"
         id="path138" />
      <path
         d="m 69.698002,132.01177 c 1.095376,0.67698 1.764242,1.79352 1.635478,2.96968 -0.190147,1.73708 -2.044347,2.94322 -4.141611,2.69381 -0.349956,-0.0416 -0.682978,-0.12418 -0.99695,-0.23601 0.522464,0.32279 1.140531,0.54681 1.817864,0.62689 2.096911,0.24941 3.951111,-0.95638 4.141258,-2.69346 0.158398,-1.44709 -0.890058,-2.80317 -2.456039,-3.36091"
         style="fill:#d3d2d2;fill-opacity:1;fill-rule:nonzero;stroke:none;stroke-width:0.0352778"
         id="path140" />
      <path
         d="m 82.487962,142.48962 c -0.315737,2.79717 -3.857626,4.69406 -7.911043,4.23651 -4.053417,-0.45756 -7.083425,-3.09563 -6.768042,-5.8928 0.315736,-2.79718 3.857626,-4.69371 7.911042,-4.23651 4.053417,0.45755 7.083426,3.09598 6.768043,5.8928"
         style="fill:#ed1c24;fill-opacity:1;fill-rule:nonzero;stroke:none;stroke-width:0.0352778"
         id="path142" />
      <path
         d="m 75.719919,136.59682 c -4.053416,-0.4572 -7.595306,1.43933 -7.911042,4.23651 -0.0829,0.73519 0.07056,1.45803 0.407811,2.13466 0.0194,-1.28623 0.682273,-2.51849 1.902884,-3.49286 1.286228,-1.02729 3.032478,-1.64782 4.917722,-1.74801 3.914776,-0.21202 7.219245,1.92123 7.369176,4.74698 0.0088,0.16263 0.0053,0.32455 -0.0067,0.48612 0.03845,-0.15381 0.06985,-0.31009 0.08819,-0.4706 0.315383,-2.79682 -2.714626,-5.43525 -6.768043,-5.8928"
         style="fill:#bd3b2f;fill-opacity:1;fill-rule:nonzero;stroke:none;stroke-width:0.0352778"
         id="path144" />
      <path
         d="m 72.310322,139.00841 c 0.06668,0.49777 -0.425097,1.00118 -1.097844,1.1243 -0.672748,0.12312 -1.27247,-0.18027 -1.338792,-0.67769 -0.06668,-0.49777 0.425097,-1.00083 1.097844,-1.1243 0.672748,-0.12312 1.27247,0.18027 1.338792,0.67769"
         style="fill:#f4f4f4;fill-opacity:1;fill-rule:nonzero;stroke:none;stroke-width:0.0352778"
         id="path146" />
      <path
         d="m 74.510244,137.05755 c -1.436158,0 -2.789766,0.31009 -3.897489,0.90381 -1.336322,0.71544 -2.145242,1.75648 -2.277886,2.93123 -0.282222,2.50296 2.544586,4.88386 6.301317,5.3079 1.856317,0.20955 3.648075,-0.0885 5.04825,-0.83855 1.336323,-0.71544 2.145242,-1.75648 2.277887,-2.93123 0.281869,-2.50296 -2.544587,-4.88386 -6.30167,-5.3079 -0.386997,-0.0437 -0.771878,-0.0653 -1.150409,-0.0653 z m 1.272823,10.26618 c -0.417689,0 -0.840317,-0.0236 -1.265414,-0.0716 -4.337051,-0.48966 -7.582254,-3.39549 -7.234415,-6.47806 0.172509,-1.53106 1.177573,-2.86103 2.829984,-3.74579 1.587853,-0.85055 3.601508,-1.19098 5.665964,-0.95709 4.33705,0.48966 7.582253,3.39549 7.234415,6.47771 -0.172509,1.53105 -1.177573,2.86138 -2.829631,3.74614 -1.261181,0.67557 -2.790473,1.0287 -4.400903,1.0287"
         style="fill:#231f20;fill-opacity:1;fill-rule:nonzero;stroke:none;stroke-width:0.0352778"
         id="path148" />
      <path
         d="m 86.722001,172.3875 c -0.308328,-0.51428 -0.361245,-0.95994 -0.271992,-1.36701 1.251656,-0.26804 2.484967,-0.30508 3.667478,-0.25012 -0.278694,0.66752 -0.415925,1.23335 -0.323497,1.61713 2.457097,-0.13409 3.38455,0.98393 3.072342,3.11616 -2.24402,0.91969 -4.406195,0.77047 -6.482292,-0.49996 -0.192617,-1.11372 3.52e-4,-1.92264 0.337961,-2.6162"
         style="fill:#231f20;fill-opacity:1;fill-rule:nonzero;stroke:none;stroke-width:0.0352778"
         id="path216" />
      <path
         d="m 86.46412,174.94899 c 2.00025,1.21186 4.1275,1.37763 6.321778,0.49184 0.140053,-1.01286 -0.01552,-1.77451 -0.461786,-2.26342 -0.484364,-0.53097 -1.338086,-0.76867 -2.525536,-0.70171 -0.03951,0.005 -0.08043,-0.0265 -0.09031,-0.0677 -0.08643,-0.35842 0.0053,-0.86786 0.280105,-1.55511 -1.31445,-0.0525 -2.420408,0.0237 -3.463219,0.24172 -0.07479,0.40884 0.01446,0.81732 0.272697,1.24739 l 0.0032,0.0839 c -0.383822,0.78919 -0.491067,1.59219 -0.336903,2.52303 z m 3.584928,1.22907 c -1.273175,0 -2.514247,-0.36639 -3.711222,-1.09953 l -0.04057,-0.0597 c -0.167922,-0.97014 -0.06456,-1.80619 0.324909,-2.62752 -0.274814,-0.47474 -0.359128,-0.92989 -0.258234,-1.38988 0.0074,-0.0339 0.03387,-0.0599 0.06773,-0.0674 1.107722,-0.23703 2.280355,-0.31683 3.689703,-0.25192 l 0.07055,0.0409 0.0067,0.0812 c -0.272345,0.65335 -0.384528,1.15425 -0.33267,1.49119 1.202973,-0.0533 2.077509,0.20324 2.588331,0.76274 0.491067,0.53799 0.659342,1.36522 0.499181,2.45812 l -0.05397,0.0688 c -0.964142,0.39507 -1.915936,0.59294 -2.850445,0.59294"
         style="fill:#231f20;fill-opacity:1;fill-rule:nonzero;stroke:none;stroke-width:0.0352778"
         id="path218" />
    </g>
  </g>
</svg>
