<?xml version="1.0" encoding="UTF-8"?>
<svg width="1280" height="640" version="1.1" viewBox="0 0 338.67 169.33" xmlns="http://www.w3.org/2000/svg">
 <g>
  <rect x="1.0173e-5" width="338.67" height="169.33" fill="#fff" stroke-linejoin="round" stroke-width=".61179"/>
  <g transform="matrix(1.6271 0 0 1.6271 42.496 -147.01)">
   <path transform="scale(.26458)" d="m356.32 509.03c-0.64055-0.0102-1.2801-9e-3 -1.9199 2e-3 -2.1182 0.037-4.2302 0.18958-6.3184 0.45508-2.8109 0.35627-5.4494 0.92192-7.8808 1.6406 2.6616 2.3361 3.7615 7.2531 3.543 15.725l-0.0312 0.31445c-1.9616 10.529-10.452 22.921-38.881 24.715-0.56826 0.36221-1.1548 0.71273-1.7715 1.043-4.7667 2.5533-10.546 3.8887-16.633 3.8887-1.5787 0-3.1765-0.0901-4.7832-0.27148-12.069-1.3626-21.893-7.6774-25.715-15.562-3.8873-2.7851-6.113-5.6054-6.3555-7.8144-0.96518-9.7169-1.4646-15.284-0.67773-19.596-6.8686-3.6628-18.929-4.8997-30.936-0.29101-9.2417 3.5453-25.265 13.557-29.971 40.832 0.63269 0.36912 1.233 0.82256 1.8164 1.3144 3.7803-9.052 21.168-10.862 27.887-5.0977 2.6874 2.3039 2.3608 5.3206 0.65821 7.4375 1.1461 6.2994 4.7096 23.134 12.418 38.086 0.18268 0.19469 0.3613 0.401 0.5293 0.62891 5.088 6.8773 13.188 12.633 20.193 17.393 7.456 5.0626 15.626 8.7991 24.451 10.678 30.153 6.4227 68.016-9.6643 81.303-37.904 4.0507-8.608 6.4628-16.362 4.8828-25.76-1.0587-6.2946-3.3226-15.211 2.248-20.09 8.7226-7.6401 25.387 1.2819 34.084 6.3672 1.1526-0.98795 2.3273-1.7629 3.5078-2.3125-5.8342-24.838-25.792-35.503-45.648-35.82zm26.551 36.016c-0.0514 7.9e-4 -0.0992 7e-3 -0.15039 8e-3 1.2465-0.0259 2.548 0.0261 3.8711 0.18554-1.2698-0.15246-2.5202-0.21276-3.7207-0.19335zm3.752 0.19531c0.59417 0.0723 1.193 0.17538 1.793 0.29492-0.59986-0.11928-1.1989-0.22283-1.793-0.29492zm-13.613 1.459c-0.45035 0.14649-0.74118 0.25176-0.81836 0.28125-0.0759 0.0288-0.14443 0.0685-0.21484 0.10547 0.07-0.0367 0.13938-0.0749 0.21484-0.10351 0.0778-0.0297 0.36145-0.13501 0.81836-0.28321zm-1.2559 0.52344c-0.0549 0.0389-0.11184 0.0753-0.16211 0.11914 0.0503-0.0438 0.10717-0.0803 0.16211-0.11914zm-153.87 7.8379c8e-3 0.0542 0.14808 0.92064 0.35742 2.1055-0.18199-1.0445-0.35008-2.0547-0.35742-2.1055zm-26.852 1.5273c0.12403 0.13176 0.25004 0.2587 0.37109 0.39649-0.12162-0.13637-0.24651-0.26611-0.37109-0.39649zm0.78125 0.87891c0.29776 0.36628 0.59182 0.74073 0.86914 1.1445-0.27778-0.40463-0.56947-0.78065-0.86914-1.1445zm40.863 41.873c0.4293 0.74628 0.87044 1.4826 1.3223 2.2109-0.45146-0.72795-0.89328-1.465-1.3223-2.2109zm1.7891 2.957c0.45932 0.72083 0.93166 1.4287 1.4141 2.127-0.48231-0.69836-0.95483-1.406-1.4141-2.127zm1.8691 2.791c0.15171 0.21384 0.30698 0.42342 0.46094 0.63477-0.15377-0.21116-0.30942-0.42112-0.46094-0.63477zm1.5098 2.0312c0.17379 0.22446 0.34495 0.4508 0.52148 0.67188-0.17639-0.22099-0.34784-0.44752-0.52148-0.67188zm1.8125 2.2227c0.16511 0.19154 0.33065 0.38188 0.49804 0.57031-0.1674-0.18852-0.33292-0.37868-0.49804-0.57031zm2.0312 2.2246c0.0968 0.0991 0.19741 0.19294 0.29492 0.29102-0.0975-0.0981-0.19813-0.19184-0.29492-0.29102zm1.7461 1.6836c0.1372 0.12578 0.27161 0.2553 0.41016 0.37891-0.13831-0.12343-0.2732-0.25332-0.41016-0.37891zm2.1016 1.8008c0.15461 0.12302 0.31061 0.24301 0.4668 0.36329-0.15612-0.12026-0.31226-0.24029-0.4668-0.36329zm2.3223 1.7129c0.1145 0.0767 0.21936 0.1634 0.3125 0.25782-0.0934-0.0949-0.19756-0.18085-0.3125-0.25782zm90.684 3.3906c0.023 0.11224 0.0462 0.2238 0.0879 0.33008-0.0415-0.10612-0.065-0.21804-0.0879-0.33008zm-80.453 4.5273c-0.12807 0.01-0.25541 0.0326-0.37891 0.0664 0.24449-0.0671 0.50256-0.0874 0.75781-0.0586-0.12697-0.0145-0.25279-0.0175-0.3789-8e-3zm83.391 0.58985c0.0991 0.42588 0.17078 0.86236 0.21485 1.3086-0.0441-0.44619-0.1157-0.88276-0.21485-1.3086zm-95.961 0.37304c-0.17504 0.59494-0.31484 1.1855-0.43359 1.7695 0.11883-0.58467 0.25835-1.174 0.43359-1.7695zm90.762 17.711c-0.828 0.0132-1.6189 0.0369-2.3789 0.0781v2e-3c0.76-0.0412 1.5509-0.0687 2.3789-0.0801z" fill="#fff" stroke-linejoin="round"/>
   <g fill="#a7a5a6">
    <path d="m89.834 135.1c-0.93521-0.61877-2.134-0.073-3.4029 0.50553-1.4266 0.64982-2.9027 1.3212-4.1067 0.55492-2.0493-1.3049-3.1302-6.5634-3.2131-15.628-0.0021-0.22719-0.14958-0.42792-0.36618-0.49847-0.21625-0.0709-0.45332 6e-3 -0.58879 0.18873-4.5886 6.2036-7.4842 9.2992-9.4005 11.347-3.2537 3.478-3.3045 3.6551-2.7242 9.4975 0.19403 1.7674 5.1618 5.0126 12.698 5.0126 9.0756 0 11.649-3.5888 12.21-6.5994l0.0085-0.0833c0.06244-2.4208-0.28116-3.7462-1.1137-4.2972"/>
    <path d="m104.98 145.33c0.16722-0.19191 0.34326-0.35913 0.52388-0.51259-2.2807-1.3377-6.7628-3.7701-9.0939-1.7283-1.4739 1.2908-0.87524 3.6502-0.59514 5.3157 0.41804 2.4864-0.22013 4.5378-1.2919 6.8153-3.5154 7.4718-13.533 11.728-21.511 10.029-2.335-0.49706-4.4969-1.4856-6.4696-2.825-1.8535-1.2594-3.9966-2.782-5.3428-4.6016-0.04445-0.0603-0.09172-0.115-0.14005-0.16651 1.1416 2.2144 2.6229 4.2573 4.5219 5.5333 0.24236 0.16228 0.30692 0.49072 0.14464 0.73343-1.9353 2.8935-0.51223 5.8289-0.16651 6.4537 0.20567-4e-3 0.41028-8e-3 0.61242-0.0134-0.23636-1.8884 0.89182-3.2763 1.9565-4.0563-0.03775-0.0205-0.06032-0.0332-0.0635-0.0349-0.254-0.14464-0.3422-0.46743-0.1972-0.72143 0.14429-0.254 0.46849-0.34219 0.72143-0.19826 0.0028 2e-3 0.31186 0.17674 0.86007 0.42616 2.4543 1.1067 8.8928 3.3091 15.633-0.14076 0.33549-0.16933 0.69356-0.36865 1.0986-0.61101 0.25012-0.15029 0.57538-0.0692 0.72566 0.18203 0.15028 0.25047 0.06879 0.57573-0.18203 0.72602-0.11395 0.0681-0.21661 0.12523-0.3242 0.18732 1.004 0.72849 2.0726 2.0888 1.9459 4.1243 0.20108-0.0109 0.41063-0.0176 0.62971-0.0211 0.53375-0.87701 2.4634-4.324 0.76094-5.8498-0.12524-0.11254-0.18944-0.27693-0.17357-0.4445 0.01587-0.16722 0.11007-0.31679 0.254-0.40322 10.375-6.2304 8.3495-18.093 8.328-18.212-0.04551-0.25047 0.09384-0.49883 0.33196-0.58914 0.16616-0.0635 3.8876-1.4432 6.5024 0.60396"/>
    <path d="m98.373 154.38c0.43286-1.1532 0.75353-2.3361 0.84843-3.4646 0.01799-0.20884 0.01976-0.41875 0.01587-0.62865-0.13723 1.2495-0.40111 2.6462-0.86431 4.0933"/>
    <path d="m57.389 146.48c0.14076 0.0815 0.23601 0.22296 0.25929 0.38347 0.0025 0.0173 0.04163 0.2794 0.12171 0.7172 0.45191-0.56021 0.5394-1.3592-0.17251-1.9696-1.7776-1.5251-6.3782-1.0463-7.3784 1.3487 0.27672 0.23319 0.53372 0.51188 0.76136 0.84349 3.1834-3.1246 6.3748-1.342 6.4085-1.3233"/>
   </g>
   <g>
    <path d="m98.475 144.72c-0.23812 0.0903-0.37747 0.33867-0.33196 0.58914 0.02152 0.11924 2.0468 11.982-8.328 18.212-0.14393 0.0864-0.23812 0.236-0.254 0.40322-0.01588 0.16757 0.04833 0.33196 0.17357 0.4445 1.7025 1.5258-0.22719 4.9728-0.76094 5.8498-0.21908 3e-3 -0.42862 0.0102-0.62971 0.0211 0.12665-2.0355-0.94192-3.3958-1.9459-4.1243 0.1076-0.0621 0.21026-0.11924 0.3242-0.18732 0.25082-0.15029 0.33232-0.47555 0.18203-0.72602-0.15028-0.25118-0.47554-0.33232-0.72566-0.18203-0.40499 0.24236-0.76306 0.44168-1.0986 0.61101-6.7405 3.4498-13.179 1.2474-15.633 0.14076-0.54822-0.24942-0.85725-0.42439-0.86007-0.42616-0.25294-0.14393-0.57714-0.0557-0.72143 0.19826-0.14499 0.254-0.0568 0.57679 0.1972 0.72143 0.0032 2e-3 0.02575 0.0145 0.0635 0.0349-1.0647 0.77999-2.1929 2.1678-1.9565 4.0563-0.20214 5e-3 -0.40675 9e-3 -0.61242 0.0134-0.34572-0.6248-1.7688-3.5602 0.16651-6.4537 0.16228-0.24271 0.09772-0.57115-0.14464-0.73343-6.1242-4.1148-7.9135-16.204-7.9308-16.326-0.02328-0.16051-0.11853-0.30197-0.25929-0.38347-0.03373-0.0187-3.2251-1.8013-6.4085 1.3233-0.35468-0.51646-0.77445-0.91863-1.2419-1.1913 1.2451-7.2164 5.4846-9.8654 7.9298-10.803 3.6357-1.3956 7.2909-0.76553 8.8829 0.53445 0.42192 0.34431 0.89958 0.90735 0.77893 1.6327-0.02505 0.15028 0.01588 0.30409 0.11254 0.42227 0.09701 0.11783 0.23989 0.18839 0.39229 0.19333l17.72 0.5715c0.15946 0.0113 0.29245-0.0529 0.39582-0.15911 0.10372-0.10654 0.15804-0.25117 0.14993-0.39969-0.09737-1.7198 2.4804-3.3528 5.9958-3.7984 5.8932-0.7493 12.499 1.8708 14.257 9.3564-0.49107 0.2286-0.97931 0.58702-1.4446 1.1176-2.6109-1.9713-6.2689-0.6163-6.4336-0.55351zm12.83 4.2379c-6e-3 -1.143-0.66146-2.0087-1.9657-2.5749 0.26811-0.49319 0.39758-1.0784 0.39405-1.7702-2e-3 -0.27023-0.17744-0.50553-0.43532-0.58491-0.57785-0.17815-1.2411-0.27658-1.9283-0.17744-1.9163-8.0737-9.0449-10.905-15.407-10.101-3.8604 0.4893-6.5744 2.2285-6.8926 4.3325l-16.671-0.53764c-0.06068-0.74118-0.46602-1.445-1.1793-2.0271-1.8232-1.4891-5.9238-2.2401-9.931-0.70344-2.6351 1.0114-7.1858 3.8333-8.5608 11.421-0.34202-0.0621-0.69755-0.0751-1.0664-0.025-0.26268 0.0356-0.45836 0.25964-0.45836 0.52458v1.9995c-1.4541 1.0287-2.5003 2.4278-2.9734 3.9712-0.51745 0.78458-0.8516 1.7992-0.9919 3.0212-0.02575 0.22437 0.0937 0.43991 0.29739 0.53728 0.0726 0.0353 0.15088 0.0522 0.22832 0.0522 0.1385 0 0.27492-0.0547 0.37663-0.15769 0.39758-0.40252 0.80754-0.79728 1.2351-1.1959l0.40499 0.13618c-0.10707 0.69638-0.11215 1.4439-0.0047 2.2765 0.03016 0.23742 0.2166 0.42474 0.45406 0.45685l0.07084 5e-3c0.21082 0 0.40485-0.12594 0.48796-0.32526 0.1174-0.28116 0.23964-0.53869 0.36587-0.77329 0.31196 0.4064 0.69688 0.58526 1.0142 0.65546 0.03817 8e-3 0.07648 0.0127 0.11437 0.0127 0.19484 0 0.37853-0.1083 0.4706-0.28716 0.3416-0.66463 0.81054-1.5325 1.4318-2.4109l1.3627-0.71402c0.12898-0.0677 0.22433-0.18521 0.2636-0.32491 0.29517-1.0478 0.0466-2.1336-0.76066-3.302l0.35828-0.0737c0.13959-0.0286 0.26183-0.11254 0.33898-0.23283 0.07676-0.1203 0.10199-0.26635 0.0696-0.40535-0.0044-0.0194-0.09483-0.39299-0.30551-0.88512 2.2596-2.3957 4.4454-1.7706 5.13-1.4827 0.30342 1.8842 2.2024 12.21 7.929 16.479-1.5716 2.7425-0.72849 5.4197-0.18591 6.6227l-0.22578 3e-3c-0.17956 2e-3 -0.34572 0.0945-0.44168 0.24557-0.09631 0.15159-0.10901 0.34107-0.03422 0.50408 0.10689 0.23315 0.20038 0.46606 0.28187 0.70087-0.93486-0.0299-1.8567 0.37511-2.4617 1.1462-0.78281 0.99798-0.79551 2.3209-0.0321 3.453 0.09278 0.13765 0.24518 0.22366 0.41134 0.23248 0.27446 0.0145 0.54257 0.0215 0.80469 0.0215 2.2288 0 4.0097-0.522 5.4254-1.5878 0.10795-0.0811 0.18062-0.20105 0.2032-0.33443 0.18027-1.0633-0.02505-1.9464-0.60995-2.6275-0.02293-0.28156 0.07161-0.63529 0.28222-1.0545 0.08361-0.16619 0.07373-0.36477-0.02646-0.52215-0.10019-0.15695-0.28046-0.26031-0.46214-0.24405-0.08537 2e-3 -0.17357 4e-3 -0.26 6e-3 -0.31679-2.003 1.4044-3.1555 2.0066-3.491 1.6125 0.70062 4.5508 1.7085 8.1075 1.7085 2.443 0 5.176-0.47876 7.9671-1.8574 0.57573 0.29915 2.1809 1.3536 1.9473 3.6519-0.31962 0.0424-0.63041 0.0907-0.93063 0.156-0.2032 0.0437-0.36195 0.20242-0.40605 0.40527-0.1083 0.50451-0.04339 0.99769 0.19932 1.5004-0.35313 0.83922-0.43886 1.6997-0.27023 2.684 0.02611 0.14994 0.115 0.28142 0.24518 0.3616 1.2704 0.77862 2.5876 1.1683 3.9388 1.1683 0.9906 0 2.0003-0.20948 3.0226-0.62935 0.17321-0.0708 0.29598-0.22779 0.32279-0.41342 0.17921-1.2295-0.02681-2.1773-0.61172-2.818-0.52952-0.57933-1.354-0.88512-2.455-0.91087 0.03845-0.20422 0.121-0.48757 0.28328-0.8781 0.06632-0.15917 0.05115-0.34036-0.04092-0.48574-0.08431-0.13367-0.22437-0.21844-0.37959-0.23883 0.78528-1.407 2.0574-4.2662 0.71332-6.1518 9.2431-5.9482 8.618-16.209 8.3481-18.509 0.93592-0.26318 3.3249-0.74225 5.032 0.54363-0.14111 0.22542-0.28046 0.46284-0.41416 0.72989-0.0917 0.18627-0.0847 0.40464 0.0176 0.58103 0.10406 0.18097 0.29033 0.29668 0.4953 0.30903 0.22401 0.0148 0.41663 0.0815 0.5916 0.19262-0.35419 0.48013-0.69779 1.0552-1.0255 1.7268-0.0275 0.0564-0.0452 0.11747-0.0511 0.18026-0.0787 0.79446 0.80609 1.3317 2.0253 1.9138 0 1.0714 0.33232 1.93 0.99025 2.5569 0.1016 0.0967 0.23283 0.14605 0.36513 0.14605 0.115 0 0.23036-0.0374 0.32667-0.11324l0.63958-0.50201c0.13582 0.28999 0.26247 0.60078 0.38206 0.90664 0.0794 0.20356 0.27552 0.33655 0.49283 0.33655l0.0219-3.5e-4c0.22543-9e-3 0.42052-0.16087 0.48543-0.37712 0.29951-1.0022 0.39229-1.8666 0.28539-2.6289l0.45191-0.2353c0.40605 0.36583 0.85725 0.86078 1.3716 1.5074 0.10231 0.12876 0.25612 0.19967 0.41416 0.19967 0.0617 0 0.12383-0.0106 0.1838-0.0328 0.21449-0.0794 0.35384-0.28751 0.34502-0.51576-0.0692-1.8676-0.52458-3.1905-1.3702-4.051" fill="#231f20"/>
    <path d="m89.714 138.33c-0.54751 2.9386-3.0551 6.1669-11.69 6.1669-7.4814 0-12.028-3.2343-12.171-4.541-0.90276-9.084 3.7088-14.573 16.111-31.34 4.5635 13.898 6.7116 16.188 7.7502 29.714" fill="#2c2a2a"/>
    <path d="m81.782 109.75c-0.60043 0.81104-1.1822 1.5949-1.7448 2.3537-10.538 14.203-14.48 19.517-13.658 27.799 0.08784 0.79975 4.0474 4.064 11.645 4.064 6.6633 0 10.416-1.9064 11.157-5.6677-0.76835-9.942-2.1544-13.781-4.6655-20.736-0.80151-2.2207-1.7-4.7096-2.7333-7.8126zm-3.7578 35.275c-7.5357 0-12.504-3.2452-12.698-5.0126-0.8636-8.6935 3.1454-14.098 13.86-28.539 0.75036-1.0114 1.5339-2.0676 2.3513-3.1725 0.11748-0.15945 0.31538-0.24236 0.50976-0.20779 0.19509 0.0314 0.35666 0.16899 0.41839 0.35702 1.1649 3.5472 2.1636 6.3133 3.0445 8.7535 2.5485 7.0591 3.9522 10.947 4.7304 21.085 0.0039 0.0459 0.0014 0.0921-0.0071 0.13723-0.56092 3.0106-3.1344 6.5994-12.21 6.5994" fill="#231f20"/>
    <path d="m81.82 139.34c-2.1216 0-3.8255-1.0957-4.2397-2.7263-0.52846-2.0824 1.2319-4.342 3.9243-5.037 0.53305-0.13793 1.0739-0.20778 1.6069-0.20778 2.122 0 3.8259 1.0957 4.24 2.7263 0.52811 2.0824-1.2323 4.342-3.9243 5.037-0.53305 0.13793-1.0739 0.20778-1.6073 0.20778" fill="#fff"/>
    <path d="m83.112 130.84h-3.53e-4c-0.57785 0-1.1631 0.0755-1.7392 0.22437-2.9739 0.768-4.905 3.3158-4.3049 5.6797 0.47449 1.8694 2.3844 3.1249 4.7526 3.1249 0.57785 0 1.1631-0.0755 1.7392-0.22437 2.9739-0.76729 4.905-3.3154 4.3049-5.6794-0.47449-1.8694-2.3841-3.1253-4.7523-3.1253zm-3.53e-4 1.0583c1.8256 0 3.3641 0.89747 3.7271 2.3273 0.45755 1.8034-1.1289 3.7708-3.544 4.3946-0.50024 0.12912-0.9973 0.1905-1.4746 0.1905-1.8256 0-3.3641-0.89746-3.7267-2.3273-0.45791-1.8034 1.1289-3.7708 3.5437-4.3946 0.50059-0.12911 0.99766-0.1905 1.4746-0.1905" fill="#231f20"/>
    <path d="m87.864 133.96c-0.08467-0.33443-0.21731-0.6477-0.38841-0.93945-0.6544-0.56091-1.6831-0.85125-2.8543-0.71473-2.0359 0.23778-3.7253 1.6704-3.774 3.2-0.04868 1.5296 1.5617 2.5767 3.5976 2.3389 1.4686-0.17145 2.7534-0.96626 3.3754-1.9696 0.1778-0.62618 0.20602-1.277 0.04374-1.9152" fill="#231f20"/>
    <path d="m84.768 134.55c-0.87877 0-1.5416-0.37395-1.6492-0.93028-0.04551-0.23601 0.01376-0.48119 0.1718-0.71014 0.28892-0.41769 0.86854-0.73695 1.5515-0.85478 0.18027-0.0314 0.36195-0.0473 0.53975-0.0473 0.87912 0 1.5416 0.37359 1.6492 0.92992 0.04551 0.23601-0.01376 0.48154-0.17216 0.71014-0.28822 0.41769-0.86819 0.73731-1.5512 0.85513-0.18062 0.0314-0.36195 0.0473-0.53975 0.0473" fill="#fff"/>
    <path d="m85.381 131.83c-0.18768 0-0.37959 0.0166-0.57009 0.0497-0.72849 0.12559-1.3511 0.47237-1.6662 0.92816-0.18556 0.26881-0.25506 0.56056-0.20002 0.84419 0.12382 0.64171 0.85619 1.0732 1.8224 1.0732 0.18768 0 0.37924-0.0169 0.56974-0.0497 0.72849-0.12559 1.3515-0.47272 1.6665-0.92851 0.18556-0.26881 0.25471-0.56056 0.20002-0.84384-0.12453-0.64171-0.85654-1.0732-1.8224-1.0732zm0 0.35277c0.76518 0 1.3836 0.30974 1.476 0.78705 0.11218 0.58032-0.59549 1.1885-1.5801 1.3582-0.17427 0.03-0.34537 0.0445-0.50976 0.0445-0.76518 0-1.3839-0.31009-1.4764-0.78705-0.11183-0.58032 0.59549-1.1882 1.5801-1.3582 0.17427-0.03 0.34572-0.0445 0.51012-0.0445" fill="#231f20"/>
    <path d="m83.112 130.84h-3.53e-4c-0.57785 0-1.1631 0.0755-1.7392 0.22437-2.9739 0.768-4.905 3.3158-4.3049 5.6797 0.47449 1.8694 2.3844 3.1249 4.7526 3.1249 0.57785 0 1.1631-0.0755 1.7392-0.22437 2.9739-0.76729 4.905-3.3154 4.3049-5.6794-0.47449-1.8694-2.3841-3.1253-4.7523-3.1253zm-3.53e-4 1.0583c1.8256 0 3.3641 0.89747 3.7271 2.3273 0.45755 1.8034-1.1289 3.7708-3.544 4.3946-0.50024 0.12912-0.9973 0.1905-1.4746 0.1905-1.8256 0-3.3641-0.89746-3.7267-2.3273-0.45791-1.8034 1.1289-3.7708 3.5437-4.3946 0.50059-0.12911 0.99766-0.1905 1.4746-0.1905" fill="#231f20"/>
    <path d="m78.555 136.43c-0.45755-1.8034 1.1289-3.7708 3.5437-4.3946 0.21167-0.055 0.42228-0.0931 0.63112-0.12383-0.35842 0.0243-0.7239 0.0783-1.0929 0.17321-2.4148 0.62372-4.0016 2.5912-3.5437 4.3946 0.41734 1.6454 2.3932 2.582 4.5702 2.2606-1.9886 0.13405-3.7204-0.78211-4.1084-2.31" fill="#d3d2d2"/>
    <path d="m68.56 138.63c-0.20179 0-0.4071-0.0123-0.60995-0.036-2.3805-0.28328-4.1377-2.1583-3.9165-4.1801 0.20002-1.8232 1.971-3.1976 4.1201-3.1976 0.20214 0 0.40711 0.012 0.60995 0.0356 2.3812 0.28328 4.1377 2.1586 3.9165 4.1801-0.19967 1.8235-1.971 3.1979-4.1201 3.1979" fill="#fff"/>
    <path d="m68.154 130.68c-2.4194 7e-4 -4.4171 1.578-4.6457 3.6699-0.25294 2.3093 1.712 4.4457 4.3797 4.7629 0.22366 0.0264 0.44979 0.0399 0.67275 0.0399 2.4197 0 4.4168-1.5773 4.6457-3.6696 0.25259-2.3089-1.712-4.4457-4.3801-4.7625-0.22331-0.0264-0.44944-0.0406-0.6724-0.0406zm0 1.0583c0.17992 0 0.36266 0.0109 0.54786 0.0328 2.0969 0.24941 3.6428 1.8598 3.4526 3.5969-0.17357 1.584-1.7304 2.7263-3.5937 2.7263-0.17992 0-0.36301-0.0106-0.54751-0.0328-2.0973-0.24906-3.6435-1.8591-3.4533-3.5966 0.17392-1.5836 1.7311-2.7259 3.5941-2.7266" fill="#231f20"/>
    <path d="m66.67 131.53c-0.65617-0.078-1.2823 0.0512-1.8098 0.32914-0.74612 0.64488-1.2457 1.5102-1.3529 2.491-0.01975 0.1771-0.02152 0.35243-0.01552 0.5267 0.29598 1.1042 1.2993 1.989 2.5777 2.1407 1.6316 0.19402 3.0893-0.87701 3.2547-2.3925 0.16616-1.5152-1.0224-2.9009-2.6543-3.0949" fill="#231f20"/>
    <path d="m66.911 134.11c-0.07585 0-0.15346-4e-3 -0.23283-0.012-0.99977-0.0977-1.8359-0.77224-1.9029-1.5356-0.02611-0.29633 0.06703-0.57044 0.26952-0.79163 0.27129-0.29598 0.71614-0.46602 1.2206-0.46602 0.07585 0 0.15346 4e-3 0.23283 0.012 0.99977 0.0977 1.8359 0.77224 1.9032 1.5353 0.02611 0.29669-0.06738 0.57045-0.27023 0.79199-0.27093 0.29598-0.71579 0.46602-1.2203 0.46602" fill="#fff"/>
    <path d="m66.911 133.93c-0.07056 0-0.14217-4e-3 -0.21555-0.0109-0.90417-0.0885-1.6852-0.70449-1.7445-1.3758-0.05433-0.61665 0.51964-1.0657 1.3148-1.0657 0.0702 0 0.14217 4e-3 0.21555 0.0109 0.90382 0.0885 1.6852 0.70449 1.7445 1.3755 0.05433 0.617-0.52 1.0661-1.3148 1.0661zm1.6662-1.0971c-0.07479-0.8449-0.98002-1.59-2.062-1.6954-0.08326-8e-3 -0.16722-0.0127-0.24941-0.0127-0.1016 0-0.19791 0.0134-0.29457 0.0257-0.48436 0.22155-0.91899 0.51365-1.2834 0.86431-0.07161 0.17533-0.10548 0.36442-0.08819 0.55951 0.07444 0.8449 0.98002 1.59 2.0616 1.6962 0.08361 8e-3 0.16757 0.0123 0.24977 0.0123 0.55386 0 1.046-0.19085 1.3508-0.52317 0.23354-0.25506 0.34537-0.5842 0.31538-0.92675" fill="#231f20"/>
    <path d="m68.154 130.68c-2.4194 7e-4 -4.4171 1.578-4.6457 3.6699-0.25294 2.3093 1.712 4.4457 4.3797 4.7629 0.22366 0.0264 0.44979 0.0399 0.67275 0.0399 2.4197 0 4.4168-1.5773 4.6457-3.6696 0.25259-2.3089-1.712-4.4457-4.3801-4.7625-0.22331-0.0264-0.44944-0.0406-0.6724-0.0406zm0 1.0583c0.17992 0 0.36266 0.0109 0.54786 0.0328 2.0969 0.24941 3.6428 1.8598 3.4526 3.5969-0.17357 1.584-1.7304 2.7263-3.5937 2.7263-0.17992 0-0.36301-0.0106-0.54751-0.0328-2.0973-0.24906-3.6435-1.8591-3.4533-3.5966 0.17392-1.5836 1.7311-2.7259 3.5941-2.7266" fill="#231f20"/>
    <path d="m69.698 132.01c1.0954 0.67698 1.7642 1.7935 1.6355 2.9697-0.19015 1.7371-2.0443 2.9432-4.1416 2.6938-0.34996-0.0416-0.68298-0.12418-0.99695-0.23601 0.52246 0.32279 1.1405 0.54681 1.8179 0.62689 2.0969 0.24941 3.9511-0.95638 4.1413-2.6935 0.1584-1.4471-0.89006-2.8032-2.456-3.3609" fill="#d3d2d2"/>
    <path d="m82.488 142.49c-0.31574 2.7972-3.8576 4.6941-7.911 4.2365-4.0534-0.45756-7.0834-3.0956-6.768-5.8928 0.31574-2.7972 3.8576-4.6937 7.911-4.2365 4.0534 0.45755 7.0834 3.096 6.768 5.8928" fill="#ed1c24"/>
    <path d="m75.72 136.6c-4.0534-0.4572-7.5953 1.4393-7.911 4.2365-0.0829 0.73519 0.07056 1.458 0.40781 2.1347 0.0194-1.2862 0.68227-2.5185 1.9029-3.4929 1.2862-1.0273 3.0325-1.6478 4.9177-1.748 3.9148-0.21202 7.2192 1.9212 7.3692 4.747 0.0088 0.16263 0.0053 0.32455-0.0067 0.48612 0.03845-0.15381 0.06985-0.31009 0.08819-0.4706 0.31538-2.7968-2.7146-5.4352-6.768-5.8928" fill="#bd3b2f"/>
    <path d="m72.31 139.01c0.06668 0.49777-0.4251 1.0012-1.0978 1.1243-0.67275 0.12312-1.2725-0.18027-1.3388-0.67769-0.06668-0.49777 0.4251-1.0008 1.0978-1.1243 0.67275-0.12312 1.2725 0.18027 1.3388 0.67769" fill="#f4f4f4"/>
   </g>
   <g fill="#231f20">
    <path d="m74.51 137.06c-1.4362 0-2.7898 0.31009-3.8975 0.90381-1.3363 0.71544-2.1452 1.7565-2.2779 2.9312-0.28222 2.503 2.5446 4.8839 6.3013 5.3079 1.8563 0.20955 3.6481-0.0885 5.0482-0.83855 1.3363-0.71544 2.1452-1.7565 2.2779-2.9312 0.28187-2.503-2.5446-4.8839-6.3017-5.3079-0.387-0.0437-0.77188-0.0653-1.1504-0.0653zm1.2728 10.266c-0.41769 0-0.84032-0.0236-1.2654-0.0716-4.3371-0.48966-7.5823-3.3955-7.2344-6.4781 0.17251-1.5311 1.1776-2.861 2.83-3.7458 1.5879-0.85055 3.6015-1.191 5.666-0.95709 4.337 0.48966 7.5823 3.3955 7.2344 6.4777-0.17251 1.531-1.1776 2.8614-2.8296 3.7461-1.2612 0.67557-2.7905 1.0287-4.4009 1.0287"/>
    <path d="m86.722 172.39c-0.30833-0.51428-0.36124-0.95994-0.27199-1.367 1.2517-0.26804 2.485-0.30508 3.6675-0.25012-0.27869 0.66752-0.41592 1.2334-0.3235 1.6171 2.4571-0.13409 3.3846 0.98393 3.0723 3.1162-2.244 0.91969-4.4062 0.77047-6.4823-0.49996-0.19262-1.1137 3.52e-4 -1.9226 0.33796-2.6162"/>
    <path d="m86.464 174.95c2.0002 1.2119 4.1275 1.3776 6.3218 0.49184 0.14005-1.0129-0.01552-1.7745-0.46179-2.2634-0.48436-0.53097-1.3381-0.76867-2.5255-0.70171-0.03951 5e-3 -0.08043-0.0265-0.09031-0.0677-0.08643-0.35842 0.0053-0.86786 0.2801-1.5551-1.3144-0.0525-2.4204 0.0237-3.4632 0.24172-0.07479 0.40884 0.01446 0.81732 0.2727 1.2474l0.0032 0.0839c-0.38382 0.78919-0.49107 1.5922-0.3369 2.523zm3.5849 1.2291c-1.2732 0-2.5142-0.36639-3.7112-1.0995l-0.04057-0.0597c-0.16792-0.97014-0.06456-1.8062 0.32491-2.6275-0.27481-0.47474-0.35913-0.92989-0.25823-1.3899 0.0074-0.0339 0.03387-0.0599 0.06773-0.0674 1.1077-0.23703 2.2804-0.31683 3.6897-0.25192l0.07055 0.0409 0.0067 0.0812c-0.27234 0.65335-0.38453 1.1542-0.33267 1.4912 1.203-0.0533 2.0775 0.20324 2.5883 0.76274 0.49107 0.53799 0.65934 1.3652 0.49918 2.4581l-0.05397 0.0688c-0.96414 0.39507-1.9159 0.59294-2.8504 0.59294"/>
   </g>
  </g>
 </g>
</svg>
