<?xml version="1.0" encoding="UTF-8" standalone="no"?>
<!-- Created with Inkscape (http://www.inkscape.org/) -->

<svg
   xmlns:dc="http://purl.org/dc/elements/1.1/"
   xmlns:cc="http://creativecommons.org/ns#"
   xmlns:rdf="http://www.w3.org/1999/02/22-rdf-syntax-ns#"
   xmlns:svg="http://www.w3.org/2000/svg"
   xmlns="http://www.w3.org/2000/svg"
   xmlns:sodipodi="http://sodipodi.sourceforge.net/DTD/sodipodi-0.dtd"
   xmlns:inkscape="http://www.inkscape.org/namespaces/inkscape"
   version="1.1"
   id="svg2"
   xml:space="preserve"
   width="1440"
   height="1920"
   viewBox="0 0 1440 1920"
   sodipodi:docname="02.svg"
   inkscape:version="0.92.5 (2060ec1f9f, 2020-04-08)"
   inkscape:export-filename="/home/siarhei_krukau/Projects/jprof_by_bot_posts/2022/05/02.png"
   inkscape:export-xdpi="96"
   inkscape:export-ydpi="96"><metadata
     id="metadata8"><rdf:RDF><cc:Work
         rdf:about=""><dc:format>image/svg+xml</dc:format><dc:type
           rdf:resource="http://purl.org/dc/dcmitype/StillImage" /><dc:title /></cc:Work></rdf:RDF></metadata><defs
     id="defs6"><clipPath
       clipPathUnits="userSpaceOnUse"
       id="clipPath82"><path
         d="m 1293.16,1554.63 h 448.141 v 319.813 H 1293.16 Z"
         id="path80"
         inkscape:connector-curvature="0" /></clipPath><clipPath
       clipPathUnits="userSpaceOnUse"
       id="clipPath68"><rect
         style="opacity:1;vector-effect:none;fill:#02324c;fill-opacity:1;stroke:none;stroke-width:0.01203428;stroke-linecap:butt;stroke-linejoin:miter;stroke-miterlimit:4;stroke-dasharray:none;stroke-dashoffset:0;stroke-opacity:1"
         id="rect70"
         width="100.46638"
         height="121.85262"
         x="-222.00803"
         y="-262.47089"
         transform="rotate(-175.83393)" /></clipPath></defs><sodipodi:namedview
     pagecolor="#ffffff"
     bordercolor="#666666"
     borderopacity="1"
     objecttolerance="10"
     gridtolerance="10"
     guidetolerance="10"
     inkscape:pageopacity="0"
     inkscape:pageshadow="2"
     inkscape:window-width="1848"
     inkscape:window-height="1016"
     id="namedview4"
     showgrid="false"
     fit-margin-top="0"
     fit-margin-left="0"
     fit-margin-right="0"
     fit-margin-bottom="0"
     inkscape:zoom="0.25"
     inkscape:cx="1401.7576"
     inkscape:cy="811.95384"
     inkscape:window-x="72"
     inkscape:window-y="27"
     inkscape:window-maximized="1"
     inkscape:current-layer="g10"
     showguides="false"
     inkscape:snap-global="false"
     inkscape:guide-bbox="true"
     inkscape:snap-bbox="true"
     inkscape:bbox-paths="true"
     inkscape:bbox-nodes="true"
     inkscape:snap-bbox-edge-midpoints="true"
     inkscape:snap-bbox-midpoints="true"
     inkscape:object-paths="true"
     inkscape:snap-intersection-paths="true"
     inkscape:snap-smooth-nodes="true"
     inkscape:snap-midpoints="true"
     inkscape:snap-object-midpoints="true"
     inkscape:snap-center="true"
     inkscape:snap-text-baseline="true"
     inkscape:snap-page="true"><sodipodi:guide
       position="134.93544,241.83052"
       orientation="1,0"
       id="guide33"
       inkscape:locked="false" /><sodipodi:guide
       position="717.00628,500.78613"
       orientation="0,1"
       id="guide54"
       inkscape:locked="false" /><sodipodi:guide
       position="1305.0646,252.38171"
       orientation="1,0"
       id="guide56"
       inkscape:locked="false" /><sodipodi:guide
       position="766.50375,1785.0646"
       orientation="0,1"
       id="guide60"
       inkscape:locked="false" /></sodipodi:namedview><g
     inkscape:groupmode="layer"
     id="layer1"
     inkscape:label="background"
     style="display:inline"><rect
       style="opacity:1;vector-effect:none;fill:#efe7e1;fill-opacity:1;stroke:none;stroke-width:0.15301374;stroke-linecap:butt;stroke-linejoin:miter;stroke-miterlimit:4;stroke-dasharray:none;stroke-dashoffset:0;stroke-opacity:1"
       id="rect858"
       width="1440"
       height="1920"
       x="0"
       y="-5.6843419e-14" /><g
       aria-label="VOTE"
       style="font-style:normal;font-variant:normal;font-weight:500;font-stretch:normal;font-size:326.60150146px;line-height:1.25;font-family:'Gotham Black';-inkscape-font-specification:'Gotham Black, Medium';font-variant-ligatures:normal;font-variant-caps:normal;font-variant-numeric:normal;font-feature-settings:normal;text-align:start;letter-spacing:0px;word-spacing:0px;writing-mode:lr-tb;text-anchor:start;fill:#02324c;fill-opacity:1;stroke:none;stroke-width:8.1650362"
       id="text873"
       transform="matrix(1.2795524,0,0,1.2795524,-201.27775,-472.46316)"><path
         d="m 355.51326,1765.9436 h 58.78827 l 92.75483,-230.2541 H 437.49024 L 385.5606,1680.374 333.63096,1535.6895 h -70.87252 z"
         style="font-style:normal;font-variant:normal;font-weight:500;font-stretch:normal;font-size:326.60150146px;font-family:'Gotham Black';-inkscape-font-specification:'Gotham Black, Medium';font-variant-ligatures:normal;font-variant-caps:normal;font-variant-numeric:normal;font-feature-settings:normal;text-align:start;writing-mode:lr-tb;text-anchor:start;fill:#02324c;fill-opacity:1;stroke-width:8.1650362"
         id="path39"
         inkscape:connector-curvature="0" /><path
         d="m 629.53135,1768.883 c 70.54592,0 123.45537,-53.2361 123.45537,-118.883 v -0.6532 c 0,-65.6469 -52.25624,-118.2297 -122.80217,-118.2297 -70.54592,0 -123.45536,53.236 -123.45536,118.8829 v 0.6532 c 0,65.6469 52.25624,118.2298 122.80216,118.2298 z m 0.6532,-57.1553 c -34.61976,0 -58.46167,-28.7409 -58.46167,-61.7277 v -0.6532 c 0,-32.9867 23.18871,-61.0745 57.80847,-61.0745 34.94636,0 58.78827,28.741 58.78827,61.7277 v 0.6532 c 0,32.9868 -23.18871,61.0745 -58.13507,61.0745 z"
         style="font-style:normal;font-variant:normal;font-weight:500;font-stretch:normal;font-size:326.60150146px;font-family:'Gotham Black';-inkscape-font-specification:'Gotham Black, Medium';font-variant-ligatures:normal;font-variant-caps:normal;font-variant-numeric:normal;font-feature-settings:normal;text-align:start;writing-mode:lr-tb;text-anchor:start;fill:#02324c;fill-opacity:1;stroke-width:8.1650362"
         id="path41"
         inkscape:connector-curvature="0" /><path
         d="m 832.02384,1764.3105 h 63.36069 v -173.0987 h 68.58632 v -55.5223 H 763.43752 v 55.5223 h 68.58632 z"
         style="font-style:normal;font-variant:normal;font-weight:500;font-stretch:normal;font-size:326.60150146px;font-family:'Gotham Black';-inkscape-font-specification:'Gotham Black, Medium';font-variant-ligatures:normal;font-variant-caps:normal;font-variant-numeric:normal;font-feature-settings:normal;text-align:start;writing-mode:lr-tb;text-anchor:start;fill:#02324c;fill-opacity:1;stroke-width:8.1650362"
         id="path43"
         inkscape:connector-curvature="0" /><path
         d="m 991.73196,1764.3105 h 185.50964 v -53.8892 h -122.8022 v -36.2528 h 109.7382 v -49.97 h -109.7382 v -34.6198 h 121.1692 v -53.8892 H 991.73196 Z"
         style="font-style:normal;font-variant:normal;font-weight:500;font-stretch:normal;font-size:326.60150146px;font-family:'Gotham Black';-inkscape-font-specification:'Gotham Black, Medium';font-variant-ligatures:normal;font-variant-caps:normal;font-variant-numeric:normal;font-feature-settings:normal;text-align:start;writing-mode:lr-tb;text-anchor:start;fill:#02324c;fill-opacity:1;stroke-width:8.1650362"
         id="path45"
         inkscape:connector-curvature="0" /></g><path
       style="fill:#d9191f;fill-opacity:1;stroke:none;stroke-width:1px;stroke-linecap:butt;stroke-linejoin:miter;stroke-opacity:1"
       d="m 134.9375,134.93555 v 959.47265 c 49.70996,-23.9055 114.64409,-50.5108 186.90234,-60.3125 5.04583,-295.52452 41.44947,-425.21421 104.61328,-650.16015 20.06005,-71.44617 42.45021,-151.19416 67.48633,-249 z m 186.33008,954.09965 c -0.001,0.1849 -0.011,0.3458 -0.0117,0.5332 -0.0181,1.5181 0.1793,3.0386 0.56836,4.5039 -0.38709,-1.4666 -0.57828,-2.9826 -0.56055,-4.502 7e-4,-0.1801 0.003,-0.3552 0.004,-0.5351 z m 2.13086,10.7128 c 0.17791,0.6168 0.35948,1.234 0.54297,1.8516 -0.18342,-0.6173 -0.36513,-1.2351 -0.54297,-1.8516 z m 1.90039,6.2579 c 0.18625,0.5855 0.36324,1.1698 0.55469,1.7558 -0.19138,-0.5859 -0.3685,-1.1705 -0.55469,-1.7558 z m 0.70898,2.2168 c 0.42212,1.2833 0.8572,2.5681 1.30469,3.8535 -0.44751,-1.2857 -0.88255,-2.57 -1.30469,-3.8535 z m 1.57031,4.6152 c 0.50456,1.4334 1.01961,2.8678 1.55665,4.3027 -0.53671,-1.4344 -1.05237,-2.8699 -1.55665,-4.3027 z m 1.6504,4.5469 c 0.483,1.2861 0.98242,2.5727 1.49218,3.8593 -0.50966,-1.2867 -1.00928,-2.5731 -1.49218,-3.8593 z m 1.95898,5.0254 c 0.47788,1.1871 0.96744,2.3736 1.46875,3.5605 -0.50122,-1.187 -0.99095,-2.3733 -1.46875,-3.5605 z m 1.74609,4.2265 c 0.58333,1.3688 1.1855,2.7379 1.80079,4.1055 -0.61522,-1.3679 -1.21753,-2.7364 -1.80079,-4.1055 z m 2.28516,5.1641 c 0.48559,1.0645 0.98086,2.1281 1.48633,3.1914 -0.50523,-1.0631 -1.00097,-2.1271 -1.48633,-3.1914 z m 2.06445,4.4082 c 0.61622,1.2761 1.24305,2.5507 1.88868,3.8242 -0.6452,-1.2732 -1.27285,-2.5485 -1.88868,-3.8242 z m 2.59375,5.1875 c 0.48132,0.9332 0.96927,1.8654 1.4668,2.7969 -0.49733,-0.9315 -0.98566,-1.8637 -1.4668,-2.7969 z m 2.32813,4.3945 c 0.50014,0.9179 1.01107,1.8343 1.52734,2.75 -0.51609,-0.9157 -1.02737,-1.8321 -1.52734,-2.75 z m 2.36719,4.2383 c 0.66004,1.1494 1.33535,2.296 2.02148,3.4414 -0.68593,-1.1455 -1.36163,-2.2919 -2.02148,-3.4414 z m 3.10546,5.2266 c 0.4639,0.7576 0.93454,1.5139 1.41016,2.2695 -0.47537,-0.7555 -0.9465,-1.5119 -1.41016,-2.2695 z m 2.55469,4.0781 c 0.67181,1.0441 1.35599,2.0854 2.05078,3.125 -0.69447,-1.0396 -1.37928,-2.081 -2.05078,-3.125 z m 3.61328,5.4238 c 0.41847,0.6089 0.83904,1.217 1.26563,1.8242 -0.4264,-0.6071 -0.84735,-1.2153 -1.26563,-1.8242 z m 2.82227,4.0137 c 0.38552,0.5344 0.7799,1.0667 1.17187,1.5996 -0.39195,-0.5331 -0.78637,-1.065 -1.17187,-1.5996 z m 4.00586,5.3652 c 0.39726,0.516 0.79176,1.0325 1.19531,1.5469 -0.40338,-0.5144 -0.79822,-1.0309 -1.19531,-1.5469 z m 2.99023,3.8008 c 0.40137,0.4978 0.80743,0.9941 1.21485,1.4902 -0.40725,-0.4961 -0.81365,-0.9924 -1.21485,-1.4902 z m 7.90625,9.2578 c 0.29911,0.3311 0.59838,0.662 0.90039,0.9922 -0.30194,-0.3303 -0.60136,-0.6611 -0.90039,-0.9922 z m 3.22071,3.4961 c 0.20002,0.212 0.4042,0.4232 0.60546,0.6348 -0.20112,-0.2116 -0.40557,-0.4229 -0.60546,-0.6348 z m 5.64843,5.7676 c 0.15234,0.1501 0.30208,0.3013 0.45508,0.4512 -0.15302,-0.15 -0.30272,-0.301 -0.45508,-0.4512 z m 3.20899,3.1015 c 0.1909,0.1808 0.38428,0.3606 0.57617,0.5411 -0.19176,-0.1804 -0.3854,-0.3603 -0.57617,-0.5411 z m 9.71679,8.6875 c 0.13159,0.1112 0.26254,0.2231 0.39454,0.334 -0.13196,-0.111 -0.26299,-0.2228 -0.39454,-0.334 z"
       id="path96"
       inkscape:connector-curvature="0" /><path
       style="fill:#7ea2ad;fill-opacity:1;stroke:none;stroke-width:1px;stroke-linecap:butt;stroke-linejoin:miter;stroke-opacity:1"
       d="m 582.06641,134.93555 c 13.2041,15.34108 26.19785,30.43135 38.875,45.15039 240.9895,279.78625 388.15339,450.67176 463.16409,609.26562 58.5256,13.54288 98.7119,56.12149 107.9961,106.69532 6.4033,34.83124 -2.8646,69.57822 -23.9786,98.15624 52.7881,3.01731 98.9613,13.35208 136.9415,24.33208 V 134.93555 Z m 153.0332,1147.46285 c -2.28766,0.1572 -4.57451,0.3137 -6.83789,0.4551 2.26316,-0.1411 4.55017,-0.298 6.83789,-0.4551 z m -13.02734,0.8184 c -1.85657,0.1053 -3.70291,0.2042 -5.54297,0.2988 1.83969,-0.094 3.68677,-0.1938 5.54297,-0.2988 z m -12.05079,0.6191 c -1.49255,0.067 -2.96374,0.1214 -4.44531,0.1817 1.48129,-0.06 2.95316,-0.1145 4.44531,-0.1817 z"
       id="path98"
       inkscape:connector-curvature="0" /></g><g
     id="g10"
     inkscape:groupmode="layer"
     inkscape:label="duke"
     transform="matrix(1.3333333,0,0,-1.3333333,-79.930619,2019.4016)"
     style="display:inline"><path
   style="opacity:1;vector-effect:none;fill:#02324c;fill-opacity:1;stroke:none;stroke-width:0.873523;stroke-linecap:butt;stroke-linejoin:miter;stroke-miterlimit:4;stroke-dasharray:none;stroke-dashoffset:0;stroke-opacity:1"
   d="m 1142.4219,993.33984 c 3.1297,29.94606 4.212,60.83436 3.3593,93.24216 -2.1498,58.6625 -157.94643,177.4357 -406.08003,195.5098 -46.29251,3.3719 -87.6432,3.5274 -124.58594,1.0293 -2.03244,-0.1374 -4.02958,-0.2957 -6.03515,-0.4492 -1.35942,-0.104 -2.72698,-0.2051 -4.07422,-0.3164 -2.01336,-0.1665 -4.00214,-0.3467 -5.98828,-0.5293 -1.23394,-0.1134 -2.46786,-0.2263 -3.69141,-0.3457 -2.10903,-0.2063 -4.20302,-0.4221 -6.28125,-0.6465 -0.9988,-0.1077 -1.99067,-0.2183 -2.98242,-0.3301 -2.23225,-0.2521 -4.45567,-0.5102 -6.65234,-0.7832 -0.58516,-0.073 -1.16149,-0.1506 -1.74414,-0.2246 -11.04988,-1.4067 -21.66009,-3.0683 -31.83008,-4.9785 -0.0322,-0.01 -0.0655,-0.011 -0.0977,-0.018 -48.2422,-9.0714 -86.76236,-23.6036 -117.4043,-41.5859 0,0 -0.002,0 -0.002,0 -5.99091,-3.5159 -11.68101,-7.1625 -17.08594,-10.9258 -3.60285,-2.5086 -7.07865,-5.0705 -10.43164,-7.6778 0,0 -0.002,0 -0.002,0 -5.03005,-3.9113 -9.78205,-7.9271 -14.27344,-12.0351 -2.99429,-2.7385 -5.87327,-5.5174 -8.63867,-8.332 -1.38235,-1.4071 -2.73772,-2.8237 -4.06445,-4.2481 0,0 0,0 0,0 -1.32671,-1.4244 -2.6263,-2.8564 -3.89844,-4.2969 0,0 0,0 0,0 -1.27212,-1.4405 -2.51772,-2.8881 -3.73633,-4.3437 0,0 0,0 0,0 -1.21858,-1.4556 -2.41201,-2.9171 -3.57812,-4.3867 0,0 0,0 0,0 -1.1661,-1.4696 -2.3072,-2.9454 -3.42188,-4.4278 0,0 0,0 0,0 -1.11466,-1.4824 -2.20523,-2.9689 -3.26953,-4.4629 0,0 0,0 0,0 -1.06428,-1.494 -2.10417,-2.9935 -3.11914,-4.498 0,0 0,0 0,0 -1.01495,-1.5045 -2.00596,-3.0133 -2.97266,-4.5273 0,0 0,0 0,0 -1.93363,-3.0283 -3.77266,-6.0735 -5.51953,-9.1328 0,0 0,0 0,0 -8.73526,-15.2981 -15.189,-30.9254 -19.88476,-46.3204 -3.7e-4,0 3.6e-4,0 0,0 -0.93877,-3.0778 -1.80881,-6.1465 -2.61133,-9.2011 -3.3e-4,0 3.2e-4,0 0,0 -0.38906,-1.4653 -0.58648,-2.9858 -0.56836,-4.5039 7.3e-4,-0.1874 0.0103,-0.3483 0.0117,-0.5332 0.0761,-18.9547 0.26992,-37.232 0.57226,-54.9395 -72.25901,9.8018 -137.19413,36.4068 -186.90429,60.3125 v 299.3496 c -0.006,-3.3663 -0.0195,-6.3928 -0.0274,-9.668 0.0159,11.0751 0.0274,22.5966 0.0274,35.125 H 779 1305.0645 v -400.6796 c -44.0263,-12.7279 -99.0536,-24.59694 -162.6426,-25.19536 z"
   id="rect888"
   inkscape:connector-curvature="0"
   transform="matrix(0.75000002,0,0,-0.75000002,59.947966,1514.5512)" /><path
   style="fill:#efe7e1;fill-opacity:1;stroke:none;stroke-width:1px;stroke-linecap:butt;stroke-linejoin:miter;stroke-opacity:1"
   d="m 861.06055,975.6543 c 2.45411,0.0108 4.89918,0.0546 7.33984,0.11718 -2.44051,-0.0626 -4.88587,-0.10641 -7.33984,-0.11718 z m -5.41797,0.0234 c -0.5376,0.006 -1.07513,0.015 -1.61328,0.0234 0.538,-0.008 1.07583,-0.0175 1.61328,-0.0234 z m -6.46875,0.12891 c -0.20584,0.006 -0.41127,0.0112 -0.61719,0.0176 0.20598,-0.006 0.41129,-0.0115 0.61719,-0.0176 z m 21.30078,0.0293 c 1.76941,0.0561 3.53534,0.12561 5.29687,0.20898 -1.76155,-0.0834 -3.52743,-0.15287 -5.29687,-0.20898 z m -27.46094,0.20703 c -0.46908,0.0219 -0.93878,0.0465 -1.4082,0.0703 0.46951,-0.0238 0.93903,-0.0484 1.4082,-0.0703 z m 35.04492,0.11523 c 2.0442,0.11065 4.08272,0.23932 6.11524,0.38672 -2.03285,-0.14743 -4.07071,-0.27605 -6.11524,-0.38672 z m -40.95312,0.21094 c -0.40884,0.0259 -0.81749,0.0489 -1.22656,0.0762 0.40922,-0.0273 0.81757,-0.0503 1.22656,-0.0762 z m 48.17383,0.25 c 2.38654,0.18107 4.76182,0.39328 7.13086,0.625 -2.36859,-0.23167 -4.74477,-0.44396 -7.13086,-0.625 z m -54.875,0.23438 c -0.41371,0.0339 -0.82828,0.0702 -1.24219,0.10546 0.41405,-0.0353 0.82834,-0.0716 1.24219,-0.10546 z m -5.88282,0.5332 c -0.44267,0.0434 -0.88525,0.0838 -1.32812,0.1289 0.44292,-0.0451 0.8854,-0.0854 1.32812,-0.1289 z m -6.82812,0.72851 c -0.36131,0.0423 -0.72256,0.0895 -1.08398,0.13282 0.36129,-0.0434 0.72279,-0.0906 1.08398,-0.13282 z m 84.07031,0.1836 c 1.88173,0.23967 3.75638,0.49739 5.625,0.76953 -1.86854,-0.27212 -3.74335,-0.52988 -5.625,-0.76953 z m -89.97656,0.56055 c -0.37629,0.0502 -0.75252,0.099 -1.12891,0.15039 0.3764,-0.0514 0.75261,-0.10023 1.12891,-0.15039 z m 97.12305,0.42578 c 2.30322,0.34694 4.59511,0.72086 6.87695,1.11718 -2.28179,-0.3963 -4.57378,-0.77026 -6.87695,-1.11718 z m -104.00977,0.55273 c -0.18029,0.0275 -0.36071,0.0582 -0.54101,0.0859 0.18036,-0.0277 0.36066,-0.0585 0.54101,-0.0859 z m 112.67773,0.88867 c 1.73257,0.31154 3.4584,0.63649 5.17774,0.97656 -1.71932,-0.34006 -3.44519,-0.66503 -5.17774,-0.97656 z m -118.30273,0.0156 c -0.5078,0.0852 -1.01556,0.17235 -1.52344,0.25976 0.50796,-0.0874 1.01557,-0.17449 1.52344,-0.25976 z m 125.58984,1.38476 c 1.75942,0.36112 3.5112,0.73975 5.25586,1.13086 -1.74485,-0.39115 -3.49626,-0.76971 -5.25586,-1.13086 z m 7.15625,1.55274 c 0.3771,0.0871 0.75254,0.17706 1.12891,0.26562 -0.37634,-0.0886 -0.75184,-0.17847 -1.12891,-0.26562 z m 5.28711,1.27734 c 0.35785,0.0898 0.71706,0.1765 1.07422,0.26758 -0.3571,-0.0911 -0.71642,-0.1778 -1.07422,-0.26758 z m 5.8418,1.52735 c 0.43928,0.12015 0.87627,0.24505 1.31445,0.36718 -0.43824,-0.12215 -0.8751,-0.24701 -1.31445,-0.36718 z m 5.4043,1.53906 c 0.28082,0.0829 0.56341,0.16237 0.84375,0.24609 -0.28025,-0.0837 -0.56303,-0.16323 -0.84375,-0.24609 z m 5.53125,1.69531 c 0.42868,0.1364 0.8557,0.2757 1.2832,0.41406 -0.42752,-0.13836 -0.8545,-0.27766 -1.2832,-0.41406 z m 5.64844,1.86523 c 0.14224,0.0487 0.28562,0.0956 0.42773,0.14454 -0.14207,-0.0489 -0.28553,-0.0958 -0.42773,-0.14454 z m 5.07812,1.79883 c 0.4535,0.16576 0.90541,0.33391 1.35742,0.50196 -0.45196,-0.16804 -0.90397,-0.33622 -1.35742,-0.50196 z m 5.44336,2.05664 c 0.17331,0.0678 0.3484,0.13305 0.52148,0.20117 -0.17312,-0.0681 -0.34813,-0.13337 -0.52148,-0.20117 z m 5,2.01953 c 0.41148,0.17106 0.82232,0.34259 1.23242,0.51563 -0.41007,-0.17303 -0.82097,-0.34458 -1.23242,-0.51563 z m 10.71484,4.74798 c 0.56948,0.2689 1.12822,0.5461 1.69336,0.8184 -0.56542,-0.2724 -1.12359,-0.5494 -1.69336,-0.8184 z m 4.93555,2.4024 c 0.61955,0.3101 1.22963,0.6271 1.84375,0.9414 -0.61397,-0.3142 -1.22435,-0.6313 -1.84375,-0.9414 z m 4.71094,2.4277 c 0.68866,0.3647 1.3692,0.7356 2.05078,1.1055 -0.68145,-0.3699 -1.36224,-0.7409 -2.05078,-1.1055 z m 4.67381,2.5488 c 0.6977,0.3908 1.3901,0.7853 2.0801,1.1817 -0.6897,-0.3963 -1.3827,-0.791 -2.0801,-1.1817 z m 4.4785,2.5801 c 0.732,0.433 1.4606,0.8692 2.1836,1.3086 -0.723,-0.4395 -1.4515,-0.8755 -2.1836,-1.3086 z m 4.4141,2.6875 c 0.707,0.4417 1.4152,0.8822 2.1133,1.3301 -0.6982,-0.448 -1.4062,-0.8882 -2.1133,-1.3301 z m 4.3711,2.8086 c 0.6879,0.4542 1.3797,0.905 2.0586,1.3652 -0.6786,-0.4601 -1.371,-0.9111 -2.0586,-1.3652 z m 4.1133,2.7891 c 0.6966,0.4851 1.401,0.9655 2.0879,1.457 -0.687,-0.4917 -1.3912,-0.9718 -2.0879,-1.457 z m 5.9511,4.2929 c 0.6111,0.4606 1.2039,0.9327 1.8067,1.3985 -0.6026,-0.4659 -1.1957,-0.9379 -1.8067,-1.3985 z m 3.8731,3.0039 c 0.7505,0.5969 1.4836,1.2035 2.2207,1.8086 -0.7367,-0.605 -1.4706,-1.2118 -2.2207,-1.8086 z m 3.6973,3.0235 c 0.7682,0.6443 1.5221,1.2978 2.2753,1.9512 -0.7532,-0.6537 -1.507,-1.3066 -2.2753,-1.9512 z m 3.6543,3.1523 c 0.7359,0.6518 1.4605,1.3102 2.1816,1.9707 -0.7208,-0.6604 -1.446,-1.319 -2.1816,-1.9707 z m 3.5214,3.2071 c 0.7189,0.6725 1.4293,1.35 2.1328,2.0312 -0.7036,-0.6815 -1.4139,-1.3585 -2.1328,-2.0312 z m 3.3555,3.2304 c 0.7338,0.7251 1.4631,1.4529 2.1797,2.1875 -0.7163,-0.7345 -1.4462,-1.4625 -2.1797,-2.1875 z m 3.1426,3.1895 c 0.7716,0.8045 1.538,1.6121 2.289,2.4277 -0.7509,-0.8158 -1.5175,-1.623 -2.289,-2.4277 z m 13.5547,16.1289 c 0.7529,1.0315 1.4839,2.0733 2.207,3.1191 -0.7229,-1.0458 -1.4544,-2.0876 -2.207,-3.1191 z m 2.5683,3.6348 c 0.7119,1.0389 1.4036,2.0879 2.086,3.1406 -0.6822,-1.0529 -1.3743,-2.1016 -2.086,-3.1406 z m 2.4102,3.6386 c 0.662,1.0305 1.3078,2.068 1.9414,3.1114 -0.6333,-1.0432 -1.2798,-2.0811 -1.9414,-3.1114 z m 2.3515,3.791 c 0.6092,1.0157 1.205,2.0369 1.7872,3.0645 -0.5821,-1.0278 -1.1781,-2.0486 -1.7872,-3.0645 z m 2.1719,3.75 c 0.6087,1.0885 1.2068,2.1817 1.7852,3.2832 -0.5784,-1.1017 -1.1765,-2.1945 -1.7852,-3.2832 z m 56.1289,56.2227 c -10.3146,12.2449 -24.2142,25.1433 -41.3965,38.0488 -16.5861,82.001 -105.10895,156.4581 -222.14644,178.377 -13.88244,2.5994 -27.74252,4.3907 -41.49609,5.3926 -53.02795,3.8625 -104.23069,-4.0963 -147.37891,-23.3164 -27.25703,-12.1388 -49.79718,-28.0564 -66.88672,-46.8887 -65.79935,-5.4621 -117.10816,-19.5701 -156.98633,-39.0215 l -1.34179,0.2363 c 34.72413,42.2954 105.33079,58.0781 139.36132,175.6953 h 386.44532 c 19.91388,-86.4888 82.29544,-164.1226 151.82614,-288.5234 z m -81.7968,64.7051 c -2.5656,3.6248 -5.2455,7.2067 -8.0332,10.7422 2.7878,-3.5356 5.4675,-7.1173 8.0332,-10.7422 z m -8.1329,10.8711 c -1.3956,1.7677 -2.8183,3.5236 -4.2675,5.2675 1.4495,-1.7442 2.8717,-3.4995 4.2675,-5.2675 z m -4.2675,5.2675 c -1.4636,1.7611 -2.9539,3.5084 -4.4707,5.2442 1.5165,-1.7354 3.0075,-3.4835 4.4707,-5.2442 z m -4.4707,5.2442 c -1.4969,1.713 -3.0209,3.4142 -4.5684,5.1015 1.548,-1.6878 3.071,-3.388 4.5684,-5.1015 z m -455.05473,0.016 c 0.10479,0.4779 0.21639,0.9535 0.32617,1.4297 -0.10971,-0.4762 -0.22143,-0.9518 -0.32617,-1.4297 z m 0.9961,4.207 c 0.13323,0.5274 0.26685,1.0549 0.40625,1.5801 -0.13929,-0.5253 -0.27311,-1.0526 -0.40625,-1.5801 z m 449.32033,1.0645 c -1.534,1.6697 -3.0916,3.327 -4.6738,4.9707 1.5824,-1.6438 3.1397,-3.3009 4.6738,-4.9707 z m -4.6738,4.9707 c -1.6055,1.6677 -3.2368,3.321 -4.8907,4.9609 1.6539,-1.6399 3.2852,-3.2932 4.8907,-4.9609 z m -443.46099,-1.6543 c 0.12904,0.4475 0.24928,0.8978 0.38281,1.3438 -0.13338,-0.446 -0.25392,-0.8963 -0.38281,-1.3438 z m 1.58008,5.1309 c 0.20332,0.6134 0.41893,1.2217 0.63086,1.832 -0.21162,-0.6102 -0.42783,-1.2187 -0.63086,-1.832 z m 436.88481,1.5879 c -3.2938,3.2629 -6.6824,6.47 -10.1602,9.6171 3.4779,-3.147 6.8663,-6.3543 10.1602,-9.6171 z m -435.54497,2.246 c 0.26601,0.7293 0.53807,1.4571 0.81641,2.1817 -0.27812,-0.725 -0.55062,-1.452 -0.81641,-2.1817 z m 1.45118,3.7969 c 0.30453,0.7638 0.60751,1.5268 0.92578,2.2852 -0.31777,-0.7582 -0.62173,-1.5216 -0.92578,-2.2852 z m 423.75779,3.7324 c -3.46856,3.1341 -7.0251,6.2093 -10.666,9.2207 3.6411,-3.0114 7.19725,-6.0865 10.666,-9.2207 z m -419.71092,5.4532 c 0.43448,0.8951 0.88183,1.7849 1.33594,2.6718 -0.45378,-0.8871 -0.90181,-1.7765 -1.33594,-2.6718 z m 408.875,3.9082 c -3.61588,2.9866 -7.31444,5.9092 -11.08984,8.7675 3.77541,-2.8582 7.47396,-5.781 11.08984,-8.7675 z m -11.44336,9.0351 c -3.75489,2.8351 -7.58613,5.6056 -11.48828,8.3067 3.90261,-2.7012 7.73297,-5.4714 11.48828,-8.3067 z m -11.83398,8.5469 c -1.96887,1.3593 -3.95465,2.7016 -5.95899,4.0254 2.00412,-1.3236 3.99033,-2.6663 5.95899,-4.0254 z m -5.95899,4.0254 c -1.98661,1.3121 -3.99148,2.6045 -6.01172,3.8809 2.02017,-1.2763 4.02517,-2.5689 6.01172,-3.8809 z m -6.32617,4.0801 c -2.0159,1.2706 -4.04766,2.5236 -6.0957,3.7578 2.04807,-1.2341 4.07977,-2.4872 6.0957,-3.7578 z m -6.38672,3.9316 c -2.0604,1.239 -4.13692,2.461 -6.22851,3.6621 2.09207,-1.2013 4.16765,-2.4229 6.22851,-3.6621 z m -6.22851,3.6621 c -2.0853,1.1975 -4.18766,2.3742 -6.30274,3.5332 2.11534,-1.159 4.2172,-2.3356 6.30274,-3.5332 z m -328.29493,-1.5508 c 0.24727,0.175 0.49654,0.3437 0.74415,0.5176 -0.24754,-0.1739 -0.49695,-0.3426 -0.74415,-0.5176 z m 4.00586,2.7735 c 0.45826,0.3118 0.9176,0.6193 1.37696,0.9277 -0.45942,-0.3084 -0.91864,-0.6159 -1.37696,-0.9277 z m 317.4629,2.5976 c -4.20174,2.2935 -8.46002,4.5083 -12.77149,6.6446 4.31156,-2.1362 8.56966,-4.3512 12.77149,-6.6446 z m -313.45704,0.072 c 0.53012,0.3468 1.06027,0.6929 1.5918,1.0352 -0.53132,-0.3422 -1.06189,-0.6886 -1.5918,-1.0352 z m 4.80274,3.0703 c 0.24181,0.1508 0.48252,0.3052 0.72461,0.4551 -0.24209,-0.1499 -0.48281,-0.3043 -0.72461,-0.4551 z m 4.74609,2.8926 c 0.46268,0.2751 0.92697,0.5446 1.39063,0.8164 -0.46365,-0.2718 -0.92796,-0.5413 -1.39063,-0.8164 z m 290.65235,0.8496 c -2.15953,1.066 -4.3305,2.1153 -6.51563,3.1406 2.1851,-1.0252 4.35613,-2.0747 6.51563,-3.1406 z m -6.51563,3.1406 c -2.15918,1.0131 -4.3326,2.0022 -6.51562,2.9746 2.18314,-0.9724 4.35632,-1.9615 6.51562,-2.9746 z m -280.06055,-1.6191 c 0.54438,0.3105 1.08911,0.6197 1.63477,0.9258 -0.54562,-0.3061 -1.09043,-0.6153 -1.63477,-0.9258 z m 4.40625,2.457 c 0.45635,0.2487 0.91193,0.5005 1.36914,0.7461 -0.45716,-0.2456 -0.91283,-0.4974 -1.36914,-0.7461 z m 268.44727,2.4434 c -4.33424,1.92 -8.71399,3.7588 -13.13477,5.5136 4.421,-1.7548 8.80031,-3.5936 13.13477,-5.5136 z m -263.16602,0.3633 c 0.4973,0.2563 0.99784,0.503 1.4961,0.7558 -0.49834,-0.2528 -0.99872,-0.4994 -1.4961,-0.7558 z M 649,1304.2188 c 0.46769,0.2301 0.9358,0.4585 1.4043,0.6855 -0.46861,-0.2271 -0.9365,-0.4554 -1.4043,-0.6855 z m 4.36523,2.0957 c 0.47205,0.2214 0.94319,0.4457 1.41602,0.664 -0.47268,-0.2183 -0.94413,-0.4427 -1.41602,-0.664 z m 240.42774,1.2246 c -2.20621,0.869 -4.4206,1.7202 -6.64649,2.5468 2.22582,-0.8266 4.44035,-1.6779 6.64649,-2.5468 z m -234.89258,1.3007 c 0.18276,0.081 0.36596,0.1582 0.54883,0.2383 -0.18286,-0.08 -0.36609,-0.1577 -0.54883,-0.2383 z m 228.16602,1.2754 c -2.17513,0.8073 -4.36184,1.5895 -6.55469,2.3555 2.19291,-0.766 4.3795,-1.5483 6.55469,-2.3555 z m -223.86524,0.5723 c 0.44854,0.1882 0.89849,0.3711 1.34766,0.5566 -0.4493,-0.1855 -0.89899,-0.3684 -1.34766,-0.5566 z m 4.45313,1.8164 c 0.4244,0.1689 0.84849,0.3393 1.27343,0.5059 -0.42483,-0.1666 -0.84914,-0.337 -1.27343,-0.5059 z m 211.96679,0.2793 c -2.23627,0.7746 -4.48093,1.5289 -6.73437,2.2598 2.25354,-0.7309 4.498,-1.4852 6.73437,-2.2598 z m -207.13476,1.5898 c 0.28731,0.1079 0.57378,0.2195 0.86133,0.3262 -0.28757,-0.1067 -0.574,-0.2183 -0.86133,-0.3262 z m 199.99414,0.7989 c -2.12275,0.6857 -4.25366,1.3498 -6.39063,1.9961 2.13723,-0.6463 4.26762,-1.3104 6.39063,-1.9961 z m -194.87109,1.0664 c 0.41811,0.147 0.83728,0.2887 1.25585,0.4336 -0.41845,-0.1448 -0.83786,-0.2866 -1.25585,-0.4336 z m 187.56835,1.207 c -2.21116,0.6622 -4.42908,1.3027 -6.65429,1.9219 2.22483,-0.619 4.44351,-1.2599 6.65429,-1.9219 z m -183.25585,0.2656 c 0.52707,0.1752 1.05427,0.3498 1.58203,0.5215 -0.52789,-0.1717 -1.05483,-0.3462 -1.58203,-0.5215 z m 4.8496,1.5586 c 0.35047,0.1091 0.70003,0.2226 1.05079,0.3301 -0.35079,-0.1075 -0.70029,-0.221 -1.05079,-0.3301 z m 170.82032,0.3535 c -2.1883,0.6025 -4.38323,1.1861 -6.58399,1.7461 2.20124,-0.5601 4.39522,-1.1435 6.58399,-1.7461 z m -165.43946,1.2637 c 0.38827,0.1119 0.77743,0.2181 1.16602,0.3281 -0.38864,-0.11 -0.7777,-0.2162 -1.16602,-0.3281 z m 158.58204,0.5528 c -2.31386,0.5868 -4.63444,1.1482 -6.96094,1.6875 2.3265,-0.5392 4.64707,-1.1008 6.96094,-1.6875 z m -154.20118,0.666 c 0.54191,0.1461 1.08447,0.2889 1.62696,0.4316 -0.54261,-0.1427 -1.08494,-0.2854 -1.62696,-0.4316 z m 4.67188,1.2129 c 0.45046,0.1128 0.90073,0.2274 1.35156,0.3378 -0.45083,-0.1104 -0.90111,-0.225 -1.35156,-0.3378 z m 141.63867,0.021 c -2.27036,0.5196 -4.54498,1.0188 -6.82617,1.4922 2.28074,-0.4733 4.55626,-0.9727 6.82617,-1.4922 z m -136.54492,1.2051 c 0.56866,0.1309 1.13782,0.2577 1.70703,0.3848 -0.56913,-0.1271 -1.13844,-0.254 -1.70703,-0.3848 z m 129.6289,0.3067 c -2.30133,0.4769 -4.60863,0.9263 -6.91992,1.3554 2.31154,-0.4291 4.61835,-0.8785 6.91992,-1.3554 z m -124.59179,0.8027 c 0.53419,0.1123 1.06888,0.221 1.60351,0.3301 -0.5347,-0.1091 -1.06924,-0.2178 -1.60351,-0.3301 z m 116.41015,0.7832 c -2.26571,0.4118 -4.53451,0.8068 -6.80859,1.1719 2.27369,-0.365 4.54326,-0.7602 6.80859,-1.1719 z m -6.80859,1.1719 c -2.2815,0.3662 -4.5685,0.703 -6.85742,1.0215 2.2895,-0.3186 4.57534,-0.6552 6.85742,-1.0215 z m -105.18164,-1.0664 c 0.55843,0.1078 1.11692,0.2159 1.67578,0.3203 -0.55903,-0.1044 -1.11718,-0.2124 -1.67578,-0.3203 z m 5.52344,1.0117 c 0.17389,0.03 0.34755,0.062 0.52148,0.092 -0.17393,-0.03 -0.34759,-0.062 -0.52148,-0.092 z m 4.97851,0.8105 c 0.46395,0.071 0.9284,0.1382 1.39258,0.2071 -0.46415,-0.069 -0.92866,-0.1358 -1.39258,-0.2071 z m 86.42969,0.4571 c -2.29039,0.3087 -4.58426,0.5993 -6.88086,0.8593 2.29708,-0.26 4.58998,-0.5506 6.88086,-0.8593 z m -6.88086,0.8593 c -2.29459,0.2599 -4.59279,0.4868 -6.89258,0.6973 2.29972,-0.2105 4.59804,-0.4375 6.89258,-0.6973 z m -75.11133,-0.6738 c 0.55976,0.077 1.11963,0.1531 1.67969,0.2266 -0.56013,-0.073 -1.11986,-0.1497 -1.67969,-0.2266 z m 4.68946,0.6035 c 0.51116,0.062 1.02182,0.1269 1.5332,0.1856 -0.51119,-0.059 -1.02224,-0.1241 -1.5332,-0.1856 z m 5.8164,0.6446 c 0.40217,0.04 0.80476,0.075 1.20703,0.1132 -0.40234,-0.038 -0.80479,-0.073 -1.20703,-0.1132 z m 56.39063,0.2421 c -2.27843,0.1991 -4.5575,0.3795 -6.83985,0.5293 2.2822,-0.1497 4.56157,-0.3303 6.83985,-0.5293 z m -51.8125,0.1739 c 0.48882,0.041 0.97784,0.079 1.46679,0.1172 -0.48887,-0.038 -0.97805,-0.076 -1.46679,-0.1172 z m 4.58008,0.3437 c 0.51701,0.035 1.03365,0.073 1.55078,0.1055 -0.51704,-0.032 -1.03387,-0.071 -1.55078,-0.1055 z m 39.76953,0.049 c -2.12304,0.1351 -4.24752,0.246 -6.37305,0.3378 2.12531,-0.092 4.25024,-0.2028 6.37305,-0.3378 z m -36.98047,0.125 c 2.04851,0.119 4.09678,0.2166 6.14648,0.2929 -2.04958,-0.076 -4.09808,-0.1739 -6.14648,-0.2929 z m 29.27148,0.2695 c -2.25012,0.088 -4.50207,0.1531 -6.7539,0.1914 2.25202,-0.038 4.50359,-0.1039 6.7539,-0.1914 z m -21.98437,0.066 c 2.26582,0.076 4.53261,0.1261 6.79883,0.1504 -2.2665,-0.024 -4.53272,-0.075 -6.79883,-0.1504 z m 14.14257,0.1367 c -2.02891,0.027 -4.05842,0.035 -6.08789,0.022 2.02979,0.013 4.05866,0.01 6.08789,-0.022 z"
   id="path982"
   transform="matrix(0.75000002,0,0,-0.75000002,59.947966,1514.5512)"
   inkscape:connector-curvature="0" /><path
   inkscape:connector-curvature="0"
   id="path112"
   style="fill:#02324c;fill-opacity:1;fill-rule:nonzero;stroke:none;stroke-width:0.87352294"
   d="m 614.72408,552.98284 c 186.1002,13.55554 302.94704,102.63493 304.55941,146.63182 5.68906,216.24694 -103.03712,342.49684 -393.62953,679.87154 -20.35012,23.6279 -41.59977,48.3027 -63.77336,74.1188 -3.18798,3.7265 -8.22463,5.4179 -12.96283,4.2144 -4.76134,-1.1263 -8.50401,-4.8147 -9.6904,-9.5693 -22.38668,-89.6961 -42.07492,-159.8045 -59.43968,-221.6511 -50.23834,-178.9143 -77.91013,-277.45596 -78.89219,-529.22558 -0.0133,-1.13956 0.13078,-2.27641 0.4211,-3.37634 19.26793,-73.34046 89.27877,-157.33979 313.40748,-141.01424"
   sodipodi:nodetypes="cccccccccc" /><path
   sodipodi:nodetypes="ssssss"
   d="m 445.16396,1401.6981 c -7.755,-11.9498 -136.83145,-455.20245 -120.34691,-532.28181 2.36292,-11.04867 20.56929,-17.51025 29.07668,-11.01759 21.11809,16.1169 46.88439,31.35789 69.77652,37.2663 125.13149,32.29615 -45.46273,136.2747 75.23412,353.0406 20.01638,35.9485 -26.8808,194.3809 -53.74041,152.9925 z"
   style="fill:#d9191f;fill-opacity:1;fill-rule:nonzero;stroke:none;stroke-width:0.74643379"
   id="path1013"
   inkscape:connector-curvature="0" /><path
   inkscape:connector-curvature="0"
   id="path130"
   style="fill:#efe7e1;fill-opacity:1;fill-rule:nonzero;stroke:none;stroke-width:0.87352294"
   d="M 954.02399,842.51558 C 964.42465,785.94086 919.74108,729.64541 848.93621,720.05624 778.13133,710.46708 725.9746,745.82666 716.55664,797.08656 706.16533,853.6532 751.29936,914.9168 822.10019,924.5013 c 70.80084,9.58449 122.51519,-30.7339 131.9238,-81.98572 z"
   sodipodi:nodetypes="ccccc" /><path
   style="fill:#02324c;fill-opacity:1;fill-rule:nonzero;stroke:none;stroke-width:0.87352288"
   d="m 882.792,907.85543 c 11.82575,0.45287 25.50952,-2.60076 35.65306,-7.0381 0.0321,0.002 0.0575,0.005 0.0893,0.007 0.01,-0.008 0.0176,-0.0158 0.0273,-0.0236 1.07585,-0.8611 2.07743,-1.79393 3.12074,-2.68502 1.7372,-1.5071 3.50333,-2.98893 5.11995,-4.59213 0.009,-0.009 0.0188,-0.015 0.0273,-0.0236 14.19514,-14.08729 23.66448,-31.7665 27.19165,-50.98014 0.39874,-2.16914 0.5684,-4.33147 0.80682,-6.49721 -4.21119,-27.1559 -30.52855,-48.09322 -56.9444,-56.2747 -28.77378,-8.91178 -80.20403,8.38946 -87.01624,45.51922 -6.82899,37.11964 20.02468,73.47824 59.97805,81.20554 4.01608,0.77646 8.00438,1.23224 11.94627,1.38339 z"
   id="path132"
   inkscape:connector-curvature="0" /><path
   inkscape:connector-curvature="0"
   id="path134"
   style="fill:#efe7e1;fill-opacity:1;fill-rule:nonzero;stroke:none;stroke-width:0.87352294"
   d="m 872.68734,832.48413 c 1.86993,-0.17472 3.79307,-0.25009 5.76793,-0.242 24.87335,0.10205 47.04226,14.80176 50.45646,33.46781 1.32736,7.24545 -0.33585,14.21814 -4.81792,20.13849 -6.00512,7.92306 -16.5799,13.1416 -29.01698,14.30581 -1.86985,0.17472 -3.79216,0.25804 -5.76779,0.24113 -24.87334,-0.10205 -47.04226,-14.80176 -50.46433,-33.45832 -1.32821,-7.25409 0.34467,-14.21889 4.83445,-20.14884 5.99646,-7.92212 16.57124,-13.14074 29.00823,-14.30487" /><path
   inkscape:connector-curvature="0"
   id="path116"
   style="fill:#efe7e1;fill-opacity:1;fill-rule:nonzero;stroke:none;stroke-width:0.87352294"
   d="m 491.1825,892.06803 c 88.33639,-5.88423 142.83818,-73.37825 132.27122,-132.83779 -8.35513,-47.0192 -58.3866,-90.04551 -146.71799,-84.16968 -88.33139,5.87583 -135.48294,73.914 -124.91599,133.37354 8.35513,47.0192 51.02638,89.51815 139.36276,83.63393 z"
   sodipodi:nodetypes="ccccc" /><path
   style="fill:#02324c;fill-opacity:1;fill-rule:nonzero;stroke:none;stroke-width:0.87352288"
   d="m 387.41978,855.81241 c 8.07324,0.75018 17.33357,0.77459 28.07642,0.63384 42.97127,-0.56317 93.97931,-29.12834 97.93319,-66.81665 3.95387,-37.68828 -31.79428,-64.03286 -79.87675,-61.83244 -28.56576,1.30725 -60.88374,17.05532 -79.70805,38.18688 -3.68676,14.01553 -4.51273,28.45988 -2.02696,42.44682 2.84739,16.02397 9.78808,31.46761 21.05582,44.70547 4.38637,1.31032 9.18101,2.17754 14.54633,2.67608 z"
   id="path118"
   inkscape:connector-curvature="0" /><path
   d="m 387.2958,784.75007 c 1.76096,-0.65298 3.59902,-1.22327 5.50876,-1.72667 24.05224,-6.3392 49.27033,2.12182 57.39942,19.26823 3.15733,6.65495 3.35542,13.8205 0.55845,20.69922 -3.74984,9.20736 -12.61361,16.985 -24.3256,21.32851 -1.76087,0.65298 -3.59606,1.23075 -5.50886,1.72579 -24.05216,6.3392 -49.27034,-2.12183 -57.40445,-19.25695 -3.1605,-6.66315 -3.34731,-13.82368 -0.54523,-20.71359 3.74173,-9.20419 12.60541,-16.98192 24.31731,-21.32534"
   style="fill:#efe7e1;fill-opacity:1;fill-rule:nonzero;stroke:none;stroke-width:0.87352294"
   id="path969"
   inkscape:connector-curvature="0" /><path
   style="fill:#d9191f;fill-opacity:1;stroke:none;stroke-width:1px;stroke-linecap:butt;stroke-linejoin:miter;stroke-opacity:1"
   d="m 890.47461,1340.2168 c -9.75569,2.685 -19.74948,5.0119 -29.96875,6.9258 -13.88244,2.5994 -27.74252,4.3907 -41.49609,5.3926 -39.80579,2.8994 -78.58334,-0.8629 -113.69727,-11.0489 -6e-4,-10e-5 -10e-4,2e-4 -0.002,0 10.88388,17.7774 21.33123,51.4659 20.88867,77.7285 l 140.00586,0.025 c 2.68709,-39.0782 5.72991,-54.5025 24.32031,-79.0234 z"
   id="path997"
   transform="matrix(0.75000002,0,0,-0.75000002,59.947966,1514.5512)"
   inkscape:connector-curvature="0"
   sodipodi:nodetypes="ccccccccc" /><path
   style="fill:#02324c;fill-opacity:1;fill-rule:nonzero;stroke:none;stroke-width:1.16469717"
   d="m 1079.416,1101.2871 c -16.3502,170.8411 -308.0675,321.0139 -487.52928,164.8496 17.8953,25.9792 44.9851,47.6024 79.74414,63.0821 43.14822,19.2201 94.35096,27.1789 147.37891,23.3164 13.75357,-1.0019 27.61365,-2.7932 41.49609,-5.3926 141.63514,-26.5256 241.52284,-129.9921 222.67574,-230.6602 -0.9655,-5.1618 -2.2334,-10.2255 -3.7656,-15.1953 z"
   id="path148"
   inkscape:connector-curvature="0"
   sodipodi:nodetypes="ccccccc"
   transform="matrix(0.75000002,0,0,-0.75000002,59.947966,1514.5512)" /><path
   style="fill:#7ea2ad;fill-opacity:1;fill-rule:nonzero;stroke:none;stroke-width:1.16469717"
   d="m 1079.416,1101.2871 c -16.3502,170.8411 -308.0675,321.0139 -487.52928,164.8496 229.62086,208.278 516.17328,-45.0757 493.25198,-134.1289 -0.352,-5.1755 -0.9888,-10.3538 -1.9571,-15.5254 -0.9655,-5.1618 -2.2334,-10.2255 -3.7656,-15.1953 z"
   transform="matrix(0.75000002,0,0,-0.75000002,59.947966,1514.5512)"
   id="path1022"
   inkscape:connector-curvature="0" /><path
   style="fill:#d9191f;fill-opacity:1;fill-rule:nonzero;stroke:none;stroke-width:1.28503883"
   d="m 861.06055,975.6543 c -22.59701,-0.0992 -45.73751,2.00011 -68.91211,6.34961 -141.63511,26.52549 -241.52194,129.99199 -222.67578,230.64839 3.60091,19.2513 11.21029,37.2195 22.41406,53.4844 179.46178,156.1643 471.17908,5.9915 487.52928,-164.8496 -13.3097,-43.1704 -47.7081,-78.7857 -98.40428,-101.35741 -35.65046,-15.8801 -76.81144,-24.086 -119.95117,-24.27539 z"
   id="path943"
   inkscape:connector-curvature="0"
   sodipodi:nodetypes="scccccs"
   transform="matrix(0.75000002,0,0,-0.75000002,59.947966,1514.5512)" /><path
   d="m 715.76948,693.70205 c 4.79143,-20.7385 33.08095,-33.63544 63.16136,-28.81009 30.08041,4.82536 50.59878,25.54042 45.79794,46.25979 -4.79146,20.73851 -33.07558,33.62142 -63.16138,28.81008 -30.0804,-4.82536 -50.59879,-25.54041 -45.79792,-46.25978"
   style="fill:#02324c;fill-opacity:1;fill-rule:nonzero;stroke:none;stroke-width:1.53191698"
   id="path941"
   inkscape:connector-curvature="0" /><path
   inkscape:connector-curvature="0"
   id="path146"
   style="fill:#7ea2ad;fill-opacity:1;fill-rule:nonzero;stroke:none;stroke-width:0.87352294"
   d="m 745.01003,711.75056 c -0.75119,-12.41278 12.29911,-23.9604 29.13465,-25.79077 16.83554,-1.83037 31.10044,6.74089 31.84355,19.14432 0.75118,12.41278 -12.29848,23.95168 -29.13466,25.79076 -16.83553,1.83037 -31.10044,-6.74088 -31.84354,-19.14431" />
<path
   sodipodi:nodetypes="sssss"
   inkscape:connector-curvature="0"
   id="path1005"
   d="m 433.26066,583.46197 c 1.70876,-14.09504 -37.10047,-4.6012 -85.22209,40.52936 -49.29043,46.22673 -48.43561,103.59541 -42.29386,113.73244 6.49325,10.71719 43.78845,-60.39508 55.81011,-74.73049 24.945,-29.74606 67.51527,-44.96458 71.70584,-79.53131 z"
   style="opacity:1;vector-effect:none;fill:#d9191f;fill-opacity:1;stroke:none;stroke-width:0.11848719;stroke-linecap:butt;stroke-linejoin:miter;stroke-miterlimit:4;stroke-dasharray:none;stroke-dashoffset:0;stroke-opacity:1" /><path
   transform="scale(1,-1)"
   style="opacity:1;vector-effect:none;fill:#7ea2ad;fill-opacity:1;stroke:none;stroke-width:0.09999999;stroke-linecap:butt;stroke-linejoin:miter;stroke-miterlimit:4;stroke-dasharray:none;stroke-dashoffset:0;stroke-opacity:1"
   d="m 412.61748,-598.51726 c -5.83364,10.80932 -57.77884,-27.94882 -66.0261,-36.06245 -26.68369,-26.25134 -34.73662,-60.25491 -34.73663,-70.79907 0,-10.54416 29.68007,32.19575 39.77476,44.54773 20.94653,25.63041 65.99575,53.03471 60.98797,62.31379 z"
   id="path1002"
   inkscape:connector-curvature="0"
   sodipodi:nodetypes="sssss" /><path
   inkscape:connector-curvature="0"
   id="path1015"
   style="fill:#7ea2ad;fill-opacity:1;fill-rule:nonzero;stroke:none;stroke-width:0.63715762"
   d="m 442.75658,1362.5825 c -6.53807,-9.8369 -115.73682,-388.83369 -110.33408,-474.31449 0.95678,-15.13782 16.40476,-20.34422 24.9256,-13.44718 26.07912,21.10925 79.55899,29.77011 93.03462,42.97229 55.45013,54.32491 -87.2156,151.67578 26.7985,337.37418 16.53807,26.9361 5.48486,81.3034 -1.87886,93.3088 -22.32378,36.3956 -29.37189,18.8817 -32.54578,14.1064 z"
   sodipodi:nodetypes="sssssss" /><path
   sodipodi:nodetypes="ssss"
   d="m 442.78654,1345.0441 c -58.50762,-169.7683 -6.03656,-105.9484 15.25617,-89.8328 37.77693,28.5919 18.41626,67.8018 12.20335,77.931 -18.83502,30.7077 -25.88323,16.4756 -27.45952,11.9018 z"
   style="fill:#efe7e1;fill-opacity:1;fill-rule:nonzero;stroke:none;stroke-width:0.53758252"
   id="path1017"
   inkscape:connector-curvature="0" /><path
   inkscape:connector-curvature="0"
   id="path1019"
   style="fill:#efe7e1;fill-opacity:1;fill-rule:nonzero;stroke:none;stroke-width:0.53758252"
   d="m 347.64976,947.45527 c -16.80743,-78.73675 30.37688,-41.38456 90.90399,-15.66949 32.59227,13.8469 -12.60746,45.57846 -29.28513,80.66562 -30.68805,64.5629 -54.98169,-33.90338 -61.61886,-64.99613 z"
   sodipodi:nodetypes="ssss" /><path
   style="fill:#7ea2ad;fill-opacity:1;stroke:none;stroke-width:0.75px;stroke-linecap:butt;stroke-linejoin:miter;stroke-opacity:1"
   d="m 678.86879,1029.3711 c 36.87556,-49.13448 43.98587,-121.98033 65.61269,-109.41088 21.78065,12.65887 49.24035,19.51376 71.7172,20.08966 63.66657,1.63125 -75.07754,159.26442 -146.3711,223.79932 -71.35092,64.5868 -89.27785,-3.4737 9.04121,-134.4781 z"
   id="path1033"
   inkscape:connector-curvature="0"
   sodipodi:nodetypes="sssss" /><path
   sodipodi:nodetypes="ssss"
   inkscape:connector-curvature="0"
   id="path1035"
   d="m 701.51451,1065.7193 c 32.78797,-46.1962 19.63984,-129.98229 103.38002,-118.01747 49.41495,7.06042 -73.74506,138.80067 -131.97235,186.65887 -67.92324,55.8274 11.43355,-44.4658 28.59233,-68.6414 z"
   style="fill:#efe7e1;fill-opacity:1;stroke:none;stroke-width:0.58783305px;stroke-linecap:butt;stroke-linejoin:miter;stroke-opacity:1" /></g></svg>